<?xml version="1.0" encoding="UTF-8"?>
<svg version="1.1" xmlns="http://www.w3.org/2000/svg" width="512" height="512">
<path d="M0 0 C3.7256688 0.02308383 7.4502026 0.0094021 11.17583275 -0.01428986 C14.10847309 -0.0288537 17.04085036 -0.02409897 19.9734993 -0.01377869 C22.00108868 -0.00990713 24.02868933 -0.02180547 26.0562439 -0.03430176 C36.48136698 0.07058196 45.89947819 1.80056134 54.86425781 7.33398438 C61.03370872 10.59782292 67.2384751 9.39660014 73.92089844 8.71337891 C97.93660864 6.55064423 122.66040908 11.16829295 141.66503906 26.65039062 C144.20842778 28.86958412 146.64514426 31.15504801 149.05175781 33.52148438 C149.75171875 34.20855469 150.45167969 34.895625 151.17285156 35.60351562 C159.94879989 44.82424886 168.88928297 58.92753081 169.48925781 71.95898438 C169.04599724 75.56839191 168.69361582 77.07531955 166.05175781 79.52148438 C164.56675781 80.01648438 164.56675781 80.01648438 163.05175781 80.52148438 C163.17292969 81.08544922 163.29410156 81.64941406 163.41894531 82.23046875 C163.97158945 84.82577065 164.51173328 87.42352854 165.05175781 90.02148438 C165.33792969 91.35179688 165.33792969 91.35179688 165.62988281 92.70898438 C168.41694942 106.24616503 168.41694942 106.24616503 165.55175781 111.02148438 C161.86545827 113.2332641 159.3199959 112.86569712 155.05175781 112.52148438 C154.39175781 112.19148438 153.73175781 111.86148438 153.05175781 111.52148438 C153.0426294 118.33561628 153.08022396 125.14837502 153.14941406 131.9621582 C153.16751677 134.2772037 153.17515304 136.59235675 153.171875 138.9074707 C153.16900159 142.24709365 153.20448861 145.58451194 153.24707031 148.92382812 C153.23342941 150.46187355 153.23342941 150.46187355 153.21951294 152.0309906 C153.34978439 158.55760344 154.61627772 162.41436801 158.66989136 167.56983948 C162.57923669 173.09110663 161.66664733 181.11696101 161.05175781 187.52148438 C158.3013614 196.18352119 152.85692144 201.99448947 145.05175781 206.52148438 C139.34108494 208.71789702 134.07342699 208.739573 128.05175781 208.52148438 C127.98988281 209.67648438 127.92800781 210.83148438 127.86425781 212.02148438 C124.83300953 238.2376857 108.79170394 262.69688868 89.05175781 279.52148438 C84.34177909 283.20417855 79.40652295 286.84410181 74.05175781 289.52148438 C73.9277266 293.70229039 73.8372218 297.88210939 73.77709961 302.06420898 C73.75202634 303.48529728 73.71795783 304.90625751 73.67456055 306.3269043 C73.61357923 308.37515899 73.58548019 310.42170321 73.56347656 312.47070312 C73.53729248 313.70135498 73.5111084 314.93200684 73.48413086 316.19995117 C74.22192128 320.51721511 75.76758884 321.69089013 79.05175781 324.52148438 C81.90054269 325.98776408 81.90054269 325.98776408 85.0625 327.01000977 C86.85576469 327.64265747 86.85576469 327.64265747 88.68525696 328.28808594 C89.98962905 328.73202514 91.29409022 329.17570269 92.59863281 329.61914062 C93.96063495 330.09399231 95.32217338 330.57017585 96.68327332 331.04760742 C99.56268078 332.05475366 102.44491805 333.05311936 105.32980347 334.04446411 C109.80838345 335.5838111 114.27943016 337.14421769 118.74926758 338.70874023 C124.57528875 340.74639595 130.40343651 342.77778704 136.23388672 344.80273438 C144.83828694 347.79208125 153.43757746 350.79468412 162.00964355 353.8757019 C163.91540114 354.55755934 165.82578824 355.22643498 167.73632812 355.89477539 C182.57055323 361.22841741 195.17851803 369.51808525 203.05175781 383.52148438 C206.5601815 391.40180389 209.15638992 398.45278555 209.22875977 407.09082031 C209.23861656 408.06728516 209.23861656 408.06728516 209.24867249 409.06347656 C209.2683299 411.21093884 209.28005179 413.35833139 209.29003906 415.50585938 C209.29411459 416.24242012 209.29819012 416.97898087 209.30238914 417.73786163 C209.32321883 421.63741268 209.33753327 425.53692887 209.34692383 429.43652344 C209.35797514 433.44906154 209.39236853 437.46104311 209.43209553 441.47338486 C209.45833275 444.57221455 209.46662196 447.67091308 209.47020531 450.76984406 C209.47505383 452.24812829 209.48661808 453.72640736 209.5052433 455.20458221 C209.59961056 463.19101548 209.63310998 469.69940534 205.05175781 476.52148438 C204.52012527 477.02000916 203.98849274 477.51853394 203.44075012 478.03216553 C201.16170064 480.47583014 201.66436479 483.02122745 201.64550781 486.27148438 C201.63467163 486.92600586 201.62383545 487.58052734 201.6126709 488.25488281 C201.57842756 490.34385094 201.56281948 492.43227253 201.55175781 494.52148438 C201.53719471 497.27201062 201.50353928 500.02131579 201.45800781 502.77148438 C201.44737305 504.60453125 201.44737305 504.60453125 201.43652344 506.47460938 C201.05175781 509.52148438 201.05175781 509.52148438 199.66113281 511.41845703 C197.53501685 512.87564634 196.11386081 512.92210541 193.55175781 512.89648438 C192.77832031 512.90421875 192.00488281 512.91195312 191.20800781 512.91992188 C188.52198736 512.42359201 187.61964005 511.74265088 186.05175781 509.52148438 C186.05175781 508.20148438 186.05175781 506.88148438 186.05175781 505.52148438 C172.52175781 505.52148438 158.99175781 505.52148438 145.05175781 505.52148438 C144.72175781 507.17148437 144.39175781 508.82148438 144.05175781 510.52148438 C140.25928095 513.04980228 137.50226069 513.13470607 133.05175781 512.52148438 C130.37744292 510.70985171 130.09255422 509.64387361 129.05175781 506.52148438 C96.50752862 506.40717173 63.96335778 506.31880769 31.41897334 506.26615773 C27.56797083 506.25990495 23.71696871 506.25343327 19.8659668 506.24682617 C18.71607473 506.24485884 18.71607473 506.24485884 17.54295252 506.24285177 C5.16586134 506.22115524 -7.21111251 506.18176584 -19.58813433 506.13572039 C-32.30876834 506.08879489 -45.02934135 506.06115517 -57.75005835 506.0510419 C-65.58566791 506.04421589 -73.42094574 506.02273773 -81.25645306 505.98190204 C-87.28690908 505.95209397 -93.31708588 505.94925042 -99.34762383 505.95594597 C-101.80526381 505.95458085 -104.26291744 505.94477597 -106.72048187 505.925457 C-120.59865793 505.82179707 -132.75810265 506.80734355 -146.01907098 510.98005259 C-164.28797592 516.10731438 -188.95405179 513.64404103 -206.94824219 508.52148438 C-207.6151709 508.33956543 -208.28209961 508.15764648 -208.96923828 507.97021484 C-242.37196806 498.65607215 -269.37679512 475.13631323 -287.13574219 445.89648438 C-303.33894284 416.35142857 -308.78924174 379.42470468 -299.58544922 346.68310547 C-299.3751709 345.96977051 -299.16489258 345.25643555 -298.94824219 344.52148438 C-298.73925293 343.79654785 -298.53026367 343.07161133 -298.31494141 342.32470703 C-288.09622524 307.99441339 -264.47483375 280.71399531 -233.37792969 263.52929688 C-201.74067659 246.57762266 -164.59772147 244.0061772 -130.37207031 254.26904297 C-94.6631379 265.84693912 -67.69919402 291.46655409 -50.84667969 324.40429688 C-49.37618194 327.42010956 -48.34038763 330.15444249 -47.94824219 333.52148438 C-40.71958003 331.05215131 -36.43918788 329.12973391 -32.69824219 322.20898438 C-32.32699219 321.37367188 -32.32699219 321.37367188 -31.94824219 320.52148438 C-32.73199219 320.25335938 -33.51574219 319.98523438 -34.32324219 319.70898438 C-36.94824219 318.52148438 -36.94824219 318.52148438 -38.94824219 315.52148438 C-39.07666016 312.92114258 -39.07666016 312.92114258 -38.94042969 309.82226562 C-38.1028589 297.47388423 -38.1028589 297.47388423 -42.25683594 286.41210938 C-45.2426466 284.51433372 -45.2426466 284.51433372 -48.54980469 283.08007812 C-52.45994415 281.28680727 -55.05789695 279.09003449 -58.13574219 276.14648438 C-58.63686523 275.67227051 -59.13798828 275.19805664 -59.65429688 274.70947266 C-61.09826942 273.32657305 -62.52360545 271.9242952 -63.94824219 270.52148438 C-64.72941406 269.76480469 -65.51058594 269.008125 -66.31542969 268.22851562 C-80.37672657 253.69183682 -93.94824219 229.28813361 -93.94824219 208.52148438 C-94.56570312 208.55628906 -95.18316406 208.59109375 -95.81933594 208.62695312 C-104.99288696 208.92017165 -111.11146927 207.38356486 -118.26074219 201.45898438 C-124.65559171 195.29287753 -127.06394882 189.34892919 -127.44824219 180.52148438 C-127.22501595 174.1057969 -125.65885783 167.6798755 -121.39653015 162.71343994 C-119.61731013 160.02062517 -119.58432296 158.4997256 -119.60766602 155.29394531 C-119.60800591 153.73277985 -119.60800591 153.73277985 -119.60835266 152.14007568 C-119.62383652 151.0232843 -119.63932037 149.90649292 -119.65527344 148.75585938 C-119.65951828 147.60732483 -119.66376312 146.45879028 -119.6681366 145.27545166 C-119.68492886 141.60722407 -119.72258321 137.93954591 -119.76074219 134.27148438 C-119.77578827 131.78451314 -119.7894768 129.2975333 -119.80175781 126.81054688 C-119.83483423 120.71400526 -119.88503963 114.61778407 -119.94824219 108.52148438 C-120.56892578 109.25044922 -120.56892578 109.25044922 -121.20214844 109.99414062 C-123.63265884 112.12015756 -125.8705653 112.00572364 -129.00683594 111.86132812 C-130.94824219 111.52148438 -130.94824219 111.52148438 -133.44824219 110.02148438 C-136.15394335 105.51198243 -135.19294415 100.62546237 -134.10058594 95.69726562 C-133.71185194 94.40451832 -133.30632786 93.11672262 -132.88574219 91.83398438 C-132.6638623 91.14554443 -132.44198242 90.45710449 -132.21337891 89.74780273 C-128.64562425 79.1750069 -123.14012465 70.01190117 -115.94824219 61.52148438 C-115.43261719 60.8846875 -114.91699219 60.24789062 -114.38574219 59.59179688 C-111.21653671 55.74583398 -107.86684664 52.60038787 -103.94824219 49.52148438 C-104.69074219 48.94398437 -105.43324219 48.36648437 -106.19824219 47.77148438 C-107.55949219 46.65773438 -107.55949219 46.65773438 -108.94824219 45.52148438 C-109.71136719 44.92335937 -110.47449219 44.32523438 -111.26074219 43.70898438 C-112.94824219 41.52148438 -112.94824219 41.52148438 -113.63574219 38.27148438 C-112.4052084 31.55948188 -108.24066841 28.21881786 -102.89355469 24.25976562 C-72.26315823 3.31921149 -36.17163572 -0.22633614 0 0 Z " fill="#020202" transform="translate(302.9482421875,-0.521484375)"/>
<path d="M0 0 C3.7256688 0.02308383 7.4502026 0.0094021 11.17583275 -0.01428986 C14.10847309 -0.0288537 17.04085036 -0.02409897 19.9734993 -0.01377869 C22.00108868 -0.00990713 24.02868933 -0.02180547 26.0562439 -0.03430176 C36.48136698 0.07058196 45.89947819 1.80056134 54.86425781 7.33398438 C61.03370872 10.59782292 67.2384751 9.39660014 73.92089844 8.71337891 C97.93660864 6.55064423 122.66040908 11.16829295 141.66503906 26.65039062 C144.20842778 28.86958412 146.64514426 31.15504801 149.05175781 33.52148438 C149.75171875 34.20855469 150.45167969 34.895625 151.17285156 35.60351562 C159.94879989 44.82424886 168.88928297 58.92753081 169.48925781 71.95898438 C169.04599724 75.56839191 168.69361582 77.07531955 166.05175781 79.52148438 C164.56675781 80.01648438 164.56675781 80.01648438 163.05175781 80.52148438 C163.17292969 81.08544922 163.29410156 81.64941406 163.41894531 82.23046875 C163.97158945 84.82577065 164.51173328 87.42352854 165.05175781 90.02148438 C165.33792969 91.35179688 165.33792969 91.35179688 165.62988281 92.70898438 C168.41694942 106.24616503 168.41694942 106.24616503 165.55175781 111.02148438 C161.86545827 113.2332641 159.3199959 112.86569712 155.05175781 112.52148438 C154.39175781 112.19148438 153.73175781 111.86148438 153.05175781 111.52148438 C153.0426294 118.33561628 153.08022396 125.14837502 153.14941406 131.9621582 C153.16751677 134.2772037 153.17515304 136.59235675 153.171875 138.9074707 C153.16900159 142.24709365 153.20448861 145.58451194 153.24707031 148.92382812 C153.23342941 150.46187355 153.23342941 150.46187355 153.21951294 152.0309906 C153.34978439 158.55760344 154.61627772 162.41436801 158.66989136 167.56983948 C162.57923669 173.09110663 161.66664733 181.11696101 161.05175781 187.52148438 C158.3013614 196.18352119 152.85692144 201.99448947 145.05175781 206.52148438 C139.34108494 208.71789702 134.07342699 208.739573 128.05175781 208.52148438 C127.98988281 209.67648438 127.92800781 210.83148438 127.86425781 212.02148438 C124.83300953 238.2376857 108.79170394 262.69688868 89.05175781 279.52148438 C84.34177909 283.20417855 79.40652295 286.84410181 74.05175781 289.52148438 C73.9277266 293.70229039 73.8372218 297.88210939 73.77709961 302.06420898 C73.75202634 303.48529728 73.71795783 304.90625751 73.67456055 306.3269043 C73.61357923 308.37515899 73.58548019 310.42170321 73.56347656 312.47070312 C73.53729248 313.70135498 73.5111084 314.93200684 73.48413086 316.19995117 C74.22192128 320.51721511 75.76758884 321.69089013 79.05175781 324.52148438 C81.90054269 325.98776408 81.90054269 325.98776408 85.0625 327.01000977 C86.85576469 327.64265747 86.85576469 327.64265747 88.68525696 328.28808594 C89.98962905 328.73202514 91.29409022 329.17570269 92.59863281 329.61914062 C93.96063495 330.09399231 95.32217338 330.57017585 96.68327332 331.04760742 C99.56268078 332.05475366 102.44491805 333.05311936 105.32980347 334.04446411 C109.80838345 335.5838111 114.27943016 337.14421769 118.74926758 338.70874023 C124.57528875 340.74639595 130.40343651 342.77778704 136.23388672 344.80273438 C144.83828694 347.79208125 153.43757746 350.79468412 162.00964355 353.8757019 C163.91540114 354.55755934 165.82578824 355.22643498 167.73632812 355.89477539 C182.57055323 361.22841741 195.17851803 369.51808525 203.05175781 383.52148438 C206.5601815 391.40180389 209.15638992 398.45278555 209.22875977 407.09082031 C209.23533096 407.74179687 209.24190216 408.39277344 209.24867249 409.06347656 C209.2683299 411.21093884 209.28005179 413.35833139 209.29003906 415.50585938 C209.29411459 416.24242012 209.29819012 416.97898087 209.30238914 417.73786163 C209.32321883 421.63741268 209.33753327 425.53692887 209.34692383 429.43652344 C209.35797514 433.44906154 209.39236853 437.46104311 209.43209553 441.47338486 C209.45833275 444.57221455 209.46662196 447.67091308 209.47020531 450.76984406 C209.47505383 452.24812829 209.48661808 453.72640736 209.5052433 455.20458221 C209.59961056 463.19101548 209.63310998 469.69940534 205.05175781 476.52148438 C204.52012527 477.02000916 203.98849274 477.51853394 203.44075012 478.03216553 C201.16170064 480.47583014 201.66436479 483.02122745 201.64550781 486.27148438 C201.63467163 486.92600586 201.62383545 487.58052734 201.6126709 488.25488281 C201.57842756 490.34385094 201.56281948 492.43227253 201.55175781 494.52148438 C201.53719471 497.27201062 201.50353928 500.02131579 201.45800781 502.77148438 C201.44737305 504.60453125 201.44737305 504.60453125 201.43652344 506.47460938 C201.05175781 509.52148438 201.05175781 509.52148438 199.66113281 511.41845703 C197.53501685 512.87564634 196.11386081 512.92210541 193.55175781 512.89648438 C192.77832031 512.90421875 192.00488281 512.91195312 191.20800781 512.91992188 C188.52198736 512.42359201 187.61964005 511.74265088 186.05175781 509.52148438 C186.05175781 508.20148438 186.05175781 506.88148438 186.05175781 505.52148438 C172.52175781 505.52148438 158.99175781 505.52148438 145.05175781 505.52148438 C144.72175781 507.17148437 144.39175781 508.82148438 144.05175781 510.52148438 C140.25361708 513.0535782 137.50708994 513.12607015 133.05175781 512.52148438 C130.88453501 511.12327612 130.29040373 510.24234808 129.49067688 507.82666016 C128.9166399 504.81185345 128.94606931 501.95850244 128.96655273 498.88867188 C128.96973511 498.23127014 128.97291748 497.57386841 128.97619629 496.89654541 C128.98875272 494.7297639 129.00963332 492.5631833 129.03222656 490.39648438 C129.0391836 489.65493103 129.04614063 488.91337769 129.05330849 488.14935303 C129.09064763 484.22838525 129.13463453 480.30755482 129.18383789 476.38671875 C129.23327982 472.33817731 129.25940379 468.2898334 129.28026867 464.24105835 C129.30063401 461.1250375 129.33850635 458.00940426 129.38112831 454.89361572 C129.39846404 453.40096193 129.40916234 451.90821564 129.4130764 450.41546631 C129.42015761 448.32770201 129.4520654 446.24169753 129.48999023 444.15429688 C129.50188889 442.96723145 129.51378754 441.78016602 129.52604675 440.55712891 C130.15677798 436.91506022 131.13198018 435.7238788 134.05175781 433.52148438 C137.87512158 432.78935089 139.53947002 433.23193041 142.92675781 435.14648438 C145.44694701 439.1491378 145.27577068 441.07047353 145.18457031 445.73242188 C145.15580811 447.63580322 145.15580811 447.63580322 145.12646484 449.57763672 C145.08948486 451.03484131 145.08948486 451.03484131 145.05175781 452.52148438 C146.18081543 452.08280029 147.30987305 451.64411621 148.47314453 451.19213867 C152.702293 449.55011247 156.93337939 447.91313039 161.16503906 446.27758789 C162.98880557 445.5719102 164.81205888 444.8649046 166.63476562 444.15649414 C169.26978632 443.13264574 171.9066768 442.11374535 174.54394531 441.09570312 C175.74614212 440.62676888 175.74614212 440.62676888 176.97262573 440.14836121 C182.59017485 437.98730514 188.26597984 436.1779869 194.05175781 434.52148438 C194.00707751 430.30728446 193.93671385 426.09446204 193.84423828 421.88110352 C193.8163054 420.45283451 193.79495566 419.02441887 193.78076172 417.59594727 C193.66444694 406.54216606 192.42323101 396.60812424 185.92675781 387.27148438 C185.42917969 386.52382813 184.93160156 385.77617187 184.41894531 385.00585938 C176.10190665 376.27708613 165.77853306 372.83084706 154.67675781 369.02148438 C153.06592115 368.45621446 151.4555711 367.88955601 149.84570312 367.3215332 C145.95016064 365.95050404 142.04913496 364.5960036 138.14587402 363.24713135 C135.17576372 362.21793748 132.21124365 361.17310518 129.24707031 360.12695312 C124.85345172 358.57758891 120.45517608 357.04276581 116.05175781 355.52148438 C115.78105469 356.24464844 115.51035156 356.9678125 115.23144531 357.71289062 C105.86095239 380.02211052 84.20179788 397.75143227 62.41943359 407.07617188 C54.48526049 410.29547558 46.38711278 412.6014912 38.05175781 414.52148438 C36.63056641 414.86179687 36.63056641 414.86179687 35.18066406 415.20898438 C17.24297938 418.87285189 -4.38048136 417.84730849 -20.94824219 409.52148438 C-22.94824219 406.52148438 -22.94824219 406.52148438 -22.76074219 403.02148438 C-21.94824219 399.52148438 -21.94824219 399.52148438 -20.82324219 397.58398438 C-15.48214647 394.55736347 -8.20002441 397.23094301 -2.57324219 398.52148438 C23.65333738 404.07469638 48.29710436 398.50146754 71.05175781 384.52148438 C74.59447479 382.06199105 77.84244054 379.40020636 81.05175781 376.52148438 C81.95796875 375.709375 82.86417969 374.89726562 83.79785156 374.06054688 C91.36410003 366.90356844 97.38281492 358.85937017 102.05175781 349.52148438 C100.32319322 349.04015028 98.5938771 348.56151467 96.86425781 348.08398438 C95.90132812 347.81714844 94.93839844 347.5503125 93.94628906 347.27539062 C91.32512085 346.59268419 88.71282281 346.02256243 86.05175781 345.52148438 C85.59027344 346.19953125 85.12878906 346.87757813 84.65332031 347.57617188 C70.34442239 367.99321594 51.5852394 379.65362582 27.13720703 384.20068359 C11.63660923 386.58511177 -7.86124588 383.4444364 -20.94824219 374.52148438 C-22.51254466 371.39287942 -22.30451502 368.96545513 -21.94824219 365.52148438 C-19.82324219 363.02148438 -19.82324219 363.02148438 -16.94824219 361.52148438 C-12.8400035 361.61079391 -9.7392873 363.05092533 -6.02636719 364.68945312 C10.31626653 371.23265046 27.24761512 369.72316734 43.30175781 363.20117188 C54.69381586 357.88294069 64.07334406 349.989105 71.05175781 339.52148438 C70.3646875 338.95300781 69.67761719 338.38453125 68.96972656 337.79882812 C68.06867188 337.02667969 67.16761719 336.25453125 66.23925781 335.45898438 C64.89927734 334.32783203 64.89927734 334.32783203 63.53222656 333.17382812 C56.91842108 326.10174321 57.67541008 318.81815446 57.86425781 309.58398438 C57.87779297 308.32779297 57.89132812 307.07160156 57.90527344 305.77734375 C57.9404719 302.69161159 57.98971476 299.60677414 58.05175781 296.52148438 C57.19195312 296.85921875 56.33214844 297.19695312 55.44628906 297.54492188 C54.26421875 297.9909375 53.08214844 298.43695313 51.86425781 298.89648438 C50.71570313 299.33734375 49.56714844 299.77820313 48.38378906 300.23242188 C37.94039522 303.65338022 26.88164276 303.93789488 15.98925781 303.95898438 C14.98434799 303.96307816 14.98434799 303.96307816 13.95913696 303.96725464 C1.87247523 303.97462225 -10.93529422 303.02795836 -21.94824219 297.52148438 C-21.97402344 298.69066406 -21.99980469 299.85984375 -22.02636719 301.06445312 C-22.08266586 302.61266664 -22.1400128 304.16084228 -22.19824219 305.70898438 C-22.21242188 306.47791016 -22.22660156 307.24683594 -22.24121094 308.0390625 C-22.45644962 313.05412385 -23.1065472 315.94282436 -26.94824219 319.52148438 C-30.38574219 320.64648438 -30.38574219 320.64648438 -33.94824219 320.52148438 C-36.58536685 318.86570352 -37.55952493 318.20219914 -38.94824219 315.52148438 C-39.41832451 311.24507833 -39.15698202 307.00214673 -39.01074219 302.70898438 C-38.79429255 294.03177973 -38.79429255 294.03177973 -42.24511719 286.41992188 C-45.24046201 284.51522422 -45.24046201 284.51522422 -48.54980469 283.08007812 C-52.45994415 281.28680727 -55.05789695 279.09003449 -58.13574219 276.14648438 C-58.63686523 275.67227051 -59.13798828 275.19805664 -59.65429688 274.70947266 C-61.09826942 273.32657305 -62.52360545 271.9242952 -63.94824219 270.52148438 C-64.72941406 269.76480469 -65.51058594 269.008125 -66.31542969 268.22851562 C-80.37672657 253.69183682 -93.94824219 229.28813361 -93.94824219 208.52148438 C-94.56570312 208.55628906 -95.18316406 208.59109375 -95.81933594 208.62695312 C-104.99288696 208.92017165 -111.11146927 207.38356486 -118.26074219 201.45898438 C-124.65559171 195.29287753 -127.06394882 189.34892919 -127.44824219 180.52148438 C-127.22501595 174.1057969 -125.65885783 167.6798755 -121.39653015 162.71343994 C-119.61731013 160.02062517 -119.58432296 158.4997256 -119.60766602 155.29394531 C-119.60800591 153.73277985 -119.60800591 153.73277985 -119.60835266 152.14007568 C-119.62383652 151.0232843 -119.63932037 149.90649292 -119.65527344 148.75585938 C-119.65951828 147.60732483 -119.66376312 146.45879028 -119.6681366 145.27545166 C-119.68492886 141.60722407 -119.72258321 137.93954591 -119.76074219 134.27148438 C-119.77578827 131.78451314 -119.7894768 129.2975333 -119.80175781 126.81054688 C-119.83483423 120.71400526 -119.88503963 114.61778407 -119.94824219 108.52148438 C-120.36203125 109.00746094 -120.77582031 109.4934375 -121.20214844 109.99414062 C-123.63265884 112.12015756 -125.8705653 112.00572364 -129.00683594 111.86132812 C-130.94824219 111.52148438 -130.94824219 111.52148438 -133.44824219 110.02148438 C-136.15394335 105.51198243 -135.19294415 100.62546237 -134.10058594 95.69726562 C-133.71185194 94.40451832 -133.30632786 93.11672262 -132.88574219 91.83398438 C-132.6638623 91.14554443 -132.44198242 90.45710449 -132.21337891 89.74780273 C-128.64562425 79.1750069 -123.14012465 70.01190117 -115.94824219 61.52148438 C-115.43261719 60.8846875 -114.91699219 60.24789062 -114.38574219 59.59179688 C-111.21653671 55.74583398 -107.86684664 52.60038787 -103.94824219 49.52148438 C-105.06199219 48.65523437 -105.06199219 48.65523437 -106.19824219 47.77148438 C-107.10574219 47.02898438 -108.01324219 46.28648438 -108.94824219 45.52148438 C-109.71136719 44.92335937 -110.47449219 44.32523438 -111.26074219 43.70898438 C-112.94824219 41.52148437 -112.94824219 41.52148437 -113.63574219 38.27148438 C-112.4052084 31.55948188 -108.24066841 28.21881786 -102.89355469 24.25976562 C-72.26315823 3.31921149 -36.17163572 -0.22633614 0 0 Z " fill="#020101" transform="translate(302.9482421875,-0.521484375)"/>
<path d="M0 0 C3.77068057 -0.08849232 7.54108765 -0.14088454 11.3125 -0.1875 C12.36501953 -0.21263672 13.41753906 -0.23777344 14.50195312 -0.26367188 C32.33988036 -0.42832966 50.15586399 7.13590943 62.9375 19.5625 C71 28.02956989 71 28.02956989 71 32 C70.31679688 31.855625 69.63359375 31.71125 68.9296875 31.5625 C61.41902757 30.17946288 54.06493119 29.72514681 46.4375 29.625 C45.47376465 29.59921875 44.5100293 29.5734375 43.51708984 29.546875 C38.10211663 29.47184837 38.10211663 29.47184837 33.375 31.83203125 C31.51415741 34.76603022 31.49226237 36.59090447 32 40 C33.57094579 42.07779119 34.44650167 42.89959952 37.03369141 43.36889648 C37.79858887 43.36962158 38.56348633 43.37034668 39.3515625 43.37109375 C40.62966797 43.39719727 40.62966797 43.39719727 41.93359375 43.42382812 C43.7044119 43.43282357 45.47525325 43.43813357 47.24609375 43.43945312 C54.57743076 43.59883002 60.5596034 45.17187737 66.3046875 49.89453125 C70.73150709 55.30141787 74 59.76345942 74 67 C72.60587891 66.67515625 72.60587891 66.67515625 71.18359375 66.34375 C69.94738281 66.0653125 68.71117187 65.786875 67.4375 65.5 C66.21933594 65.2215625 65.00117188 64.943125 63.74609375 64.65625 C56.85256254 63.37159002 56.85256254 63.37159002 50.5 65.5625 C48.71345757 68.03002078 48.71345757 68.03002078 48.8125 71.5625 C49.6787976 75.27523984 49.6787976 75.27523984 53.1875 76.875 C57.31885534 78.17800647 57.31885534 78.17800647 63 79 C63 95.17 63 111.34 63 128 C41 128 41 128 35 124 C30.2236347 118.70727088 29.8326084 114.57808347 29.4765625 107.69140625 C28.93455173 104.63037821 28.19005986 103.19005986 26 101 C21.43085688 100.39423694 21.43085688 100.39423694 17.30859375 102.1171875 C14.2703416 106.48864284 15.52305311 112.94327904 16 118 C17.99930981 126.72317912 23.09855845 133.03490442 30.125 138.375 C34.59637044 140.90229634 38.11147079 142.23896849 43.2734375 142.2734375 C44.2634375 142.2940625 45.2534375 142.3146875 46.2734375 142.3359375 C48.33325063 142.36187973 50.39317505 142.3801684 52.453125 142.390625 C58.84110081 142.5399543 62.79210275 143.21179943 68 147 C70.44434406 149.91744291 70.9556259 151.65134635 71.4375 155.4375 C70.81951598 160.46965563 68.63311745 163.18542506 65.3125 166.875 C61.66574774 168.64909569 57.98371984 168.22982999 54 168 C53.34 166.02 52.68 164.04 52 162 C50.7625 161.7525 49.525 161.505 48.25 161.25 C47.20585937 161.04117188 47.20585937 161.04117188 46.140625 160.828125 C43.85572837 160.83606298 43.85572837 160.83606298 41.79296875 162.48046875 C39.37515392 165.87805168 39.29341131 169.02976799 39.0625 173.0625 C36.59642128 201.37909005 24.13894936 225.09716931 2.71875 243.83984375 C-14.03633843 257.15243557 -34.61295455 264.79024585 -55.97949219 264.52148438 C-58.00056763 264.49999396 -60.01809171 264.52145398 -62.0390625 264.546875 C-86.96601337 264.60178184 -109.50720419 253.0361218 -127.15234375 235.93359375 C-144.58714631 218.3451806 -153.57844335 195.41347633 -155.03515625 170.93359375 C-155.32241991 165.96664023 -155.32241991 165.96664023 -157.875 161.88671875 C-160.90601631 160.62193805 -162.8870052 161.1202406 -166 162 C-168.1385485 164.1385485 -168.42655063 165.13275314 -169 168 C-178.68122385 168.86097841 -178.68122385 168.86097841 -182.5625 165.625 C-186.26969899 161.63263186 -186.45268926 158.93264749 -186.421875 153.6171875 C-185.73288992 149.34292823 -183.33018946 146.6495668 -180 144 C-177.12504442 143.04168147 -175.23623609 142.86397291 -172.24609375 142.82421875 C-171.30830078 142.80037109 -170.37050781 142.77652344 -169.40429688 142.75195312 C-167.45398591 142.70958297 -165.50340493 142.67801359 -163.55273438 142.65820312 C-154.05043872 142.3800556 -145.74319862 139.90001719 -139 133 C-134.02134266 126.17688187 -131.71390157 120.43740649 -131.76171875 111.91796875 C-131.74629643 110.3300696 -131.7299926 108.74217882 -131.71289062 107.15429688 C-131.69647489 104.67258112 -131.68748862 102.19148214 -131.69458008 99.7097168 C-131.71333447 82.57331477 -131.71333447 82.57331477 -126 76 C-121.83799212 72.1352784 -118.79017391 70.87887469 -113.16864014 70.85955811 C-112.17334793 70.85384796 -111.17805573 70.84813782 -110.15260315 70.84225464 C-108.51617104 70.84057785 -108.51617104 70.84057785 -106.84667969 70.83886719 C-105.1218763 70.83141983 -105.1218763 70.83141983 -103.36222839 70.82382202 C-99.54877122 70.80918754 -95.73535567 70.80239595 -91.921875 70.796875 C-89.27492267 70.79112426 -86.62797036 70.78536652 -83.98101807 70.77960205 C-79.1363287 70.77003068 -74.29164833 70.76413403 -69.44695067 70.7611053 C-62.32516332 70.75662819 -55.20356823 70.73909593 -48.08183932 70.7101047 C-42.57173229 70.68845581 -37.06167922 70.67839927 -31.55153012 70.67706418 C-28.26317754 70.67601821 -24.97504644 70.66870058 -21.68672943 70.65224457 C-18.01463791 70.63518107 -14.34301358 70.63706552 -10.67089844 70.64355469 C-9.58804062 70.6343399 -8.5051828 70.62512512 -7.38951111 70.6156311 C-0.73209526 70.65246521 4.74926696 71.04478814 9.890625 75.71875 C10.33921875 76.3065625 10.7878125 76.894375 11.25 77.5 C14.8648049 82.54480839 14.8648049 82.54480839 20.5 84.4375 C23.96991716 84.31743665 23.96991716 84.31743665 26 82.375 C27.43043197 78.97772407 27.13446338 77.53685643 26 74 C22.59618619 67.60667793 22.59618619 67.60667793 16.8359375 63.5625 C13.37781934 60.43780921 13.53514606 59.49783637 13.30078125 54.9765625 C13.28035814 52.52612366 13.28557975 50.07537608 13.3125 47.625 C13.27788389 45.07278971 13.2350188 42.52067694 13.18359375 39.96875 C13.16022949 38.75316406 13.13686523 37.53757813 13.11279297 36.28515625 C12.64135997 22.55441493 7.04511998 11.53423607 0 0 Z " fill="#F3E5C6" transform="translate(378,24)"/>
<path d="M0 0 C0.53439697 0.18175781 1.06879395 0.36351562 1.61938477 0.55078125 C14.11292583 4.64917765 26.01682745 6.59218655 39.125 6.5 C40.40318604 6.49355469 41.68137207 6.48710937 42.99829102 6.48046875 C53.40575479 6.27500937 63.84851353 5.49918328 73.6875 1.875 C78.8540146 0 78.8540146 0 81 0 C81.0093457 0.77601563 81.01869141 1.55203125 81.02832031 2.3515625 C81.08233437 5.90166287 81.16592303 9.45048948 81.25 13 C81.26417969 14.22074219 81.27835938 15.44148438 81.29296875 16.69921875 C81.51323186 24.84895387 82.15914739 30.80261255 87.8515625 37.0234375 C88.72941406 37.69246094 88.72941406 37.69246094 89.625 38.375 C90.21539062 38.83648437 90.80578125 39.29796875 91.4140625 39.7734375 C91.93742188 40.17820312 92.46078125 40.58296875 93 41 C93.66 41.66 94.32 42.32 95 43 C83.49774546 59.11077375 69.50880214 67.84651156 50.546875 72.6171875 C37.45892048 74.58439539 24.98365272 72.83917901 13 67.1875 C9.47283803 65.79133172 7.60144563 65.91119086 4 67 C1.63589512 68.93731528 1.63589512 68.93731528 1.6875 72.4375 C1.67229046 75.84553037 1.67229046 75.84553037 3.1640625 77.5625 C14.99998654 86.8297767 33.63616962 88.04043842 48 87 C71.32961793 83.48264485 91.35640405 72.0705314 105.47265625 53.01171875 C106.66569588 51.3534269 107.83540343 49.67838918 109 48 C110.73017508 48.45451184 112.45909877 48.91378857 114.1875 49.375 C115.15042969 49.63023437 116.11335937 49.88546875 117.10546875 50.1484375 C119.82210207 50.94766296 122.39137175 51.9031362 125 53 C120.46399373 68.79460646 104.27522238 82.88950898 90.4921875 91.06640625 C85.12814504 94.03642976 79.6694646 96.66717791 74 99 C73.38471436 99.25402588 72.76942871 99.50805176 72.13549805 99.76977539 C54.80645702 106.63551807 35.77395982 106.5318578 17.86181641 102.42358398 C13.15360375 101.34779043 8.87059587 100.63016067 4 101 C1.55842438 103.12653361 1.06318589 104.35234461 0.75 107.5625 C0.92463247 110.13687147 0.92463247 110.13687147 2 113 C4.50700347 113.84773523 6.86582149 114.49490883 9.4375 115.0625 C10.11232422 115.22298828 10.78714844 115.38347656 11.48242188 115.54882812 C13.65021697 116.05661832 15.82368315 116.53015329 18 117 C18.79897705 117.18240234 19.5979541 117.36480469 20.42114258 117.55273438 C47.24233443 123.39720379 76.73062279 116.02165296 99.91796875 102.0390625 C104.54489059 98.97790508 108.79620297 95.61275351 113 92 C113.66128906 91.48308594 114.32257813 90.96617187 115.00390625 90.43359375 C125.30837328 82.12756881 132.80496094 70.54433901 139 59 C144.84960821 59.69467543 150.17012644 61.6341729 155.69921875 63.5703125 C157.24546684 64.10928665 157.24546684 64.10928665 158.82295227 64.65914917 C161.00167488 65.42135778 163.17940539 66.18640742 165.35620117 66.95410156 C168.6541098 68.11326388 171.95856612 69.25217502 175.26367188 70.390625 C193.54564986 76.77347739 206.01576538 82.26845468 214.80078125 100.23046875 C216.87834054 105.02848028 217.11917664 108.92089884 217.09765625 114.171875 C217.09553383 115.1955014 217.09553383 115.1955014 217.09336853 116.23980713 C217.08779084 118.40991684 217.07524254 120.5799217 217.0625 122.75 C217.05748211 124.22525892 217.05291971 125.70051947 217.04882812 127.17578125 C217.03782875 130.78388798 217.02057953 134.39193375 217 138 C211.63077724 140.08615798 206.25963067 142.16725836 200.88671875 144.24389648 C199.06295224 144.94957417 197.23969893 145.65657978 195.41699219 146.36499023 C192.78197149 147.38883864 190.14508101 148.40773902 187.5078125 149.42578125 C186.70634796 149.73840408 185.90488342 150.05102692 185.07913208 150.37312317 C179.46158296 152.53417924 173.78577797 154.34349748 168 156 C167.97421875 155.03578125 167.9484375 154.0715625 167.921875 153.078125 C167.86515625 151.81484375 167.8084375 150.5515625 167.75 149.25 C167.70359375 147.99703125 167.6571875 146.7440625 167.609375 145.453125 C166.92209211 141.55852198 166.15084826 140.31291776 163 138 C159.95746492 137.41654524 159.95746492 137.41654524 157 138 C140.23860255 154.76139745 153.34855342 185.29836716 153 209 C68.19 209 -16.62 209 -104 209 C-101.82290295 206.82290295 -99.76793602 205.99116912 -96.94897461 204.84521484 C-65.27673574 191.93770561 -41.62826323 167.22817979 -27.8125 136.125 C-21.32241426 120.36841582 -17.63489283 105.31621728 -17.73925781 88.21240234 C-17.74994961 86.1347919 -17.73931744 84.05805263 -17.7265625 81.98046875 C-17.71354308 70.51154894 -19.10776151 59.52619541 -22.0625 48.4375 C-22.23587891 47.76654297 -22.40925781 47.09558594 -22.58789062 46.40429688 C-23.05416825 44.60171403 -23.52676071 42.8007677 -24 41 C-24.33581753 39.66729018 -24.67066255 38.33432595 -25 37 C-24.32453125 36.76925781 -23.6490625 36.53851563 -22.953125 36.30078125 C-17.67609212 34.37146143 -14.00465594 33.00775991 -11 28 C-10.71125 27.29875 -10.4225 26.5975 -10.125 25.875 C-8.44246656 23.0707776 -5.89309038 22.38627247 -3 21 C-0.9859044 17.9788566 -0.73163404 17.19339983 -0.5859375 13.76953125 C-0.54726563 12.96708984 -0.50859375 12.16464844 -0.46875 11.33789062 C-0.4378125 10.50451172 -0.406875 9.67113281 -0.375 8.8125 C-0.33632813 7.96751953 -0.29765625 7.12253906 -0.2578125 6.25195312 C-0.16363721 4.16832476 -0.08073325 2.08419247 0 0 Z " fill="#E7E5E7" transform="translate(280,296)"/>
<path d="M0 0 C3.77068057 -0.08849232 7.54108765 -0.14088454 11.3125 -0.1875 C12.36501953 -0.21263672 13.41753906 -0.23777344 14.50195312 -0.26367188 C32.33988036 -0.42832966 50.15586399 7.13590943 62.9375 19.5625 C71 28.02956989 71 28.02956989 71 32 C70.31679688 31.855625 69.63359375 31.71125 68.9296875 31.5625 C61.41902757 30.17946288 54.06493119 29.72514681 46.4375 29.625 C45.47376465 29.59921875 44.5100293 29.5734375 43.51708984 29.546875 C38.10211663 29.47184837 38.10211663 29.47184837 33.375 31.83203125 C31.51415741 34.76603022 31.49226237 36.59090447 32 40 C33.57094579 42.07779119 34.44650167 42.89959952 37.03369141 43.36889648 C37.79858887 43.36962158 38.56348633 43.37034668 39.3515625 43.37109375 C40.62966797 43.39719727 40.62966797 43.39719727 41.93359375 43.42382812 C43.7044119 43.43282357 45.47525325 43.43813357 47.24609375 43.43945312 C54.57743076 43.59883002 60.5596034 45.17187737 66.3046875 49.89453125 C70.73150709 55.30141787 74 59.76345942 74 67 C73.07058594 66.7834375 72.14117187 66.566875 71.18359375 66.34375 C69.94738281 66.0653125 68.71117187 65.786875 67.4375 65.5 C66.21933594 65.2215625 65.00117188 64.943125 63.74609375 64.65625 C56.85256254 63.37159002 56.85256254 63.37159002 50.5 65.5625 C48.71345757 68.03002078 48.71345757 68.03002078 48.8125 71.5625 C49.6787976 75.27523984 49.6787976 75.27523984 53.1875 76.875 C57.31885534 78.17800647 57.31885534 78.17800647 63 79 C63 95.17 63 111.34 63 128 C41 128 41 128 35 124 C30.2236347 118.70727088 29.8326084 114.57808347 29.4765625 107.69140625 C28.93455173 104.63037821 28.19005986 103.19005986 26 101 C21.43085688 100.39423694 21.43085688 100.39423694 17.30859375 102.1171875 C14.2703416 106.48864284 15.52305311 112.94327904 16 118 C17.99930981 126.72317912 23.09855845 133.03490442 30.125 138.375 C34.59637044 140.90229634 38.11147079 142.23896849 43.2734375 142.2734375 C44.2634375 142.2940625 45.2534375 142.3146875 46.2734375 142.3359375 C48.33325063 142.36187973 50.39317505 142.3801684 52.453125 142.390625 C58.84110081 142.5399543 62.79210275 143.21179943 68 147 C70.44434406 149.91744291 70.9556259 151.65134635 71.4375 155.4375 C70.81951598 160.46965563 68.63311745 163.18542506 65.3125 166.875 C61.66574774 168.64909569 57.98371984 168.22982999 54 168 C53.34 166.02 52.68 164.04 52 162 C50.7625 161.7525 49.525 161.505 48.25 161.25 C47.20585937 161.04117188 47.20585937 161.04117188 46.140625 160.828125 C43.85572837 160.83606298 43.85572837 160.83606298 41.79296875 162.48046875 C39.37515392 165.87805168 39.29341131 169.02976799 39.0625 173.0625 C36.59642128 201.37909005 24.13894936 225.09716931 2.71875 243.83984375 C-15.22484043 258.09674821 -36.02376642 264.78895275 -58.625 264.3125 C-60.05597639 264.30096249 -61.48696814 264.29119117 -62.91796875 264.28320312 C-73.9978203 264.17513964 -73.9978203 264.17513964 -79 263 C-75.85198314 261.25749458 -72.56832931 260.13434787 -69.1628418 258.99682617 C-43.23357048 250.29494565 -24.23349951 233.33846772 -11.859375 209.00390625 C-3.81090812 192.32095886 -2.67603711 175.21391379 -3 157 C-3.598125 157.48597656 -4.19625 157.97195312 -4.8125 158.47265625 C-7.76053989 160.53101982 -9.47372778 160.51424803 -13 160 C-15.15625 158.44140625 -15.15625 158.44140625 -17 156 C-17.53125 152.46875 -17.53125 152.46875 -17.5 148.5 C-17.51546875 146.53546875 -17.51546875 146.53546875 -17.53125 144.53125 C-17 141 -17 141 -15.15625 138.55859375 C-12.23388578 136.44623266 -10.53227776 136.48487616 -7 137 C-5.68 137.99 -4.36 138.98 -3 140 C-2.67 136.04 -2.34 132.08 -2 128 C-3.16917969 128.03480469 -4.33835937 128.06960937 -5.54296875 128.10546875 C-7.09113141 128.13361716 -8.63930968 128.16091619 -10.1875 128.1875 C-10.95642578 128.21263672 -11.72535156 128.23777344 -12.51757812 128.26367188 C-17.18534511 128.32377188 -20.20792877 128.04102023 -24 125 C-25.56430248 121.87139505 -25.35627284 119.44397075 -25 116 C-20 112 -20 112 -2 112 C-2 98.8 -2 85.6 -2 72 C-40.28 72 -78.56 72 -118 72 C-118 71.67 -118 71.34 -118 71 C-102.60525852 70.92984612 -87.21052903 70.8769806 -71.81566525 70.84456348 C-64.66717617 70.82910999 -57.51878656 70.80804966 -50.37036133 70.77368164 C-44.13808723 70.74373261 -37.90588519 70.72441396 -31.67354113 70.71773452 C-28.37506656 70.71383151 -25.07684553 70.70310554 -21.77842522 70.68280983 C-18.09166122 70.66102717 -14.40532388 70.65803352 -10.71850586 70.65942383 C-9.63093491 70.648638 -8.54336395 70.63785217 -7.4228363 70.6267395 C-0.74890673 70.65396578 4.73584184 71.03258349 9.890625 75.71875 C10.33921875 76.3065625 10.7878125 76.894375 11.25 77.5 C14.8648049 82.54480839 14.8648049 82.54480839 20.5 84.4375 C23.96991716 84.31743665 23.96991716 84.31743665 26 82.375 C27.43043197 78.97772407 27.13446338 77.53685643 26 74 C22.59618619 67.60667793 22.59618619 67.60667793 16.8359375 63.5625 C13.37781934 60.43780921 13.53514606 59.49783637 13.30078125 54.9765625 C13.28035814 52.52612366 13.28557975 50.07537608 13.3125 47.625 C13.27788389 45.07278971 13.2350188 42.52067694 13.18359375 39.96875 C13.16022949 38.75316406 13.13686523 37.53757813 13.11279297 36.28515625 C12.64135997 22.55441493 7.04511998 11.53423607 0 0 Z " fill="#F7D5AD" transform="translate(378,24)"/>
<path d="M0 0 C3.82848259 -0.0044155 7.65584767 -0.04099248 11.48413086 -0.07861328 C13.9561322 -0.08447611 16.42813891 -0.08844907 18.90014648 -0.09033203 C20.02541245 -0.10470306 21.15067841 -0.1190741 22.31004333 -0.13388062 C36.05565333 -0.05548933 48.80968451 4.97623793 58.95874023 14.29638672 C69.81772869 26.06398441 73.06538341 39.23598676 72.93530273 54.74560547 C72.93079102 55.76783203 72.9262793 56.79005859 72.92163086 57.84326172 C72.90990591 60.3524017 72.89197238 62.86151132 72.87280273 65.37060547 C67.26280273 65.37060547 61.65280273 65.37060547 55.87280273 65.37060547 C55.85862305 63.92169922 55.84444336 62.47279297 55.82983398 60.97998047 C55.55880267 47.74976403 55.10303762 36.697669 45.87280273 26.37060547 C43.53794074 24.60037155 43.53794074 24.60037155 40.99780273 23.18310547 C40.17538086 22.69455078 39.35295898 22.20599609 38.50561523 21.70263672 C31.38592239 18.10053693 25.00877507 18.03576546 17.18530273 18.05810547 C16.04512695 18.04199219 14.90495117 18.02587891 13.73022461 18.00927734 C12.6390332 18.00863281 11.5478418 18.00798828 10.42358398 18.00732422 C9.43011963 18.00434326 8.43665527 18.0013623 7.41308594 17.99829102 C4.85119595 18.17588735 4.85119595 18.17588735 3.04931641 19.67456055 C1.07721212 22.51751728 1.51560142 25.03672649 1.87280273 28.37060547 C3.01113464 30.16197047 3.01113464 30.16197047 4.87280273 31.37060547 C7.28496451 31.82630078 7.28496451 31.82630078 9.98608398 31.77685547 C11.48751953 31.80972656 11.48751953 31.80972656 13.01928711 31.84326172 C14.58646484 31.85679688 14.58646484 31.85679688 16.18530273 31.87060547 C30.21128314 31.99310311 30.21128314 31.99310311 35.73608398 37.08935547 C36.21432617 37.67716797 36.69256836 38.26498047 37.18530273 38.87060547 C37.67643555 39.45841797 38.16756836 40.04623047 38.67358398 40.65185547 C40.82046097 43.72881271 40.9935737 46.40956363 40.97045898 50.03857422 C40.96723633 50.93125 40.96401367 51.82392578 40.96069336 52.74365234 C40.95231445 53.67242187 40.94393555 54.60119141 40.93530273 55.55810547 C40.93079102 56.49847656 40.9262793 57.43884766 40.92163086 58.40771484 C40.90984899 60.72874259 40.89339832 63.04964191 40.87280273 65.37060547 C39.27119797 65.37607391 39.27119797 65.37607391 37.63723755 65.38165283 C27.54489733 65.41869167 17.45285973 65.4765612 7.3607502 65.55450821 C2.1730236 65.59391504 -3.01453498 65.62613682 -8.20239258 65.64160156 C-13.21468132 65.65681291 -18.22650792 65.69133777 -23.23859024 65.73891449 C-25.14496963 65.75368219 -27.05141501 65.76164382 -28.95785141 65.76248932 C-41.89944455 65.77399494 -52.49110931 66.10557686 -62.37329102 75.44873047 C-69.00105428 82.71122384 -71.41490536 90.43204832 -71.40063477 100.24560547 C-71.42091577 101.74040473 -71.4417664 103.23519635 -71.46313477 104.72998047 C-71.48572292 107.05361454 -71.50221321 109.3769447 -71.50805664 111.70068359 C-71.51763193 113.966196 -71.55144848 116.23039169 -71.58813477 118.49560547 C-71.58308929 119.18122559 -71.57804382 119.8668457 -71.57284546 120.57324219 C-71.68178759 125.97452182 -73.19828071 128.99077298 -76.12719727 133.37060547 C-84.12374428 140.81115535 -94.85202219 138.37060547 -105.12719727 138.37060547 C-105.12719727 118.90060547 -105.12719727 99.43060547 -105.12719727 79.37060547 C-94.01415379 73.81408373 -94.01415379 73.81408373 -87.62719727 72.24560547 C-82.45276691 71.1887836 -82.45276691 71.1887836 -79.12719727 67.37060547 C-79.20887216 63.79884432 -79.20887216 63.79884432 -80.12719727 60.37060547 C-83.8957831 57.85821491 -85.64340249 58.04967946 -90.12719727 58.37060547 C-92.89806114 58.9907447 -95.56255936 59.84058553 -98.25219727 60.74560547 C-99.28666992 61.07818359 -99.28666992 61.07818359 -100.34204102 61.41748047 C-103.99437576 62.60466385 -107.58189404 63.89454537 -111.12719727 65.37060547 C-108.36090966 60.08466313 -105.32598192 56.08817412 -101.06469727 51.93310547 C-100.49976563 51.37397461 -99.93483398 50.81484375 -99.3527832 50.23876953 C-94.31856516 45.35667671 -88.92837916 41.31186645 -83.12719727 37.37060547 C-81.76083572 36.21193626 -81.76083572 36.21193626 -81.75219727 33.05810547 C-81.75521944 29.30655772 -81.75521944 29.30655772 -84.25219727 27.12060547 C-87.14588758 25.35922875 -90.05590373 23.79911409 -93.12719727 22.37060547 C-93.12719727 21.71060547 -93.12719727 21.05060547 -93.12719727 20.37060547 C-67.41128371 0.91685051 -30.65979941 -0.00395891 0 0 Z " fill="#FCBE62" transform="translate(304.127197265625,14.62939453125)"/>
<path d="M0 0 C2.05541992 1.28759766 2.05541992 1.28759766 4.23046875 2.9140625 C5.03419922 3.51089844 5.83792969 4.10773438 6.66601562 4.72265625 C7.91415039 5.66431641 7.91415039 5.66431641 9.1875 6.625 C10.00025391 7.22957031 10.81300781 7.83414062 11.65039062 8.45703125 C13.29612442 9.68511263 14.92848966 10.93130188 16.54736328 12.19458008 C18.94684554 14.04400821 18.94684554 14.04400821 21.55810547 15.4050293 C25.85660079 17.96790737 27.66700334 19.78129177 29.01049805 24.69824219 C29.70134339 29.31504884 29.78685173 33.90168649 29.75 38.5625 C29.75215515 39.37913116 29.7543103 40.19576233 29.75653076 41.03713989 C29.62857848 56.32932447 29.62857848 56.32932447 24.3671875 62.0234375 C20.47634162 65.17826782 16.18592478 67.4428058 11.68652344 69.61230469 C7.18867834 71.93561907 3.27833202 75.01812647 -0.75 78.0625 C-2.1792519 79.09925563 -3.61140311 80.13202996 -5.046875 81.16015625 C-6.0359082 81.87389404 -6.0359082 81.87389404 -7.04492188 82.60205078 C-8.3674229 83.54768525 -9.6971167 84.48332755 -11.03320312 85.40966797 C-14.56013046 87.6955852 -14.56013046 87.6955852 -17 91 C-16.59122046 97.84852623 -15.00607498 103.78818052 -12.8046875 110.2578125 C-12.16505344 112.20172056 -11.52574003 114.14573416 -10.88671875 116.08984375 C-9.88011511 119.11753028 -8.86877242 122.14350455 -7.85107422 125.16748047 C-6.86445673 128.11018266 -5.89615868 131.05844319 -4.9296875 134.0078125 C-4.62143036 134.9058963 -4.31317322 135.8039801 -3.99557495 136.72927856 C-2.32223907 141.86956159 -1.58260997 145.61383227 -3 151 C-4.45786415 153.28483972 -5.83504757 155.20241301 -7.5625 157.25 C-8.47012145 158.37389384 -9.37634867 159.4989149 -10.28125 160.625 C-10.73628906 161.18445313 -11.19132812 161.74390625 -11.66015625 162.3203125 C-14.40853319 165.76579963 -16.93343613 169.37412033 -19.50390625 172.953125 C-21 175 -21 175 -22 176 C-27.30378041 176.41360436 -32.60829973 176.52807433 -37.92626953 176.62475586 C-39.71525547 176.66634889 -41.50389923 176.7276548 -43.29150391 176.80932617 C-58.05846458 177.47308668 -58.05846458 177.47308668 -62.64501953 173.99316406 C-64.5088084 171.39959325 -65.78303412 168.94723002 -67 166 C-67.35562012 165.3186499 -67.71124023 164.6372998 -68.07763672 163.93530273 C-69.02625725 162.11056924 -69.83859579 160.27467084 -70.625 158.375 C-70.91076904 157.70114258 -71.19653809 157.02728516 -71.4909668 156.33300781 C-76.0144515 145.40979874 -80.0122276 133.83852594 -81 122 C-81.10908691 121.15211914 -81.21817383 120.30423828 -81.33056641 119.43066406 C-81.90578628 112.18560347 -81.90578628 112.18560347 -79.50317383 109.04077148 C-77.34002808 107.28100834 -75.13432769 105.82065702 -72.75 104.375 C-71.09126854 103.28956057 -69.43371873 102.20231327 -67.77734375 101.11328125 C-66.96120605 100.5920166 -66.14506836 100.07075195 -65.30419922 99.53369141 C-61.17270226 96.78373761 -57.4510657 93.5323893 -53.67578125 90.31640625 C-51 89 -51 89 -47.3671875 89.75390625 C-46.25601563 90.16511719 -45.14484375 90.57632813 -44 91 C-40.30127134 91.43514455 -38.7106231 91.45552763 -35.5625 89.4375 C-33.72685669 86.98758967 -33.72685669 86.98758967 -33.6875 83.5 C-34.61751171 79.96383706 -34.61751171 79.96383706 -37.015625 78.6953125 C-39.31664283 77.67841107 -41.62010706 76.81222034 -44 76 C-46.80427923 74.59786039 -46.97767728 72.65117847 -47.92936707 69.8054657 C-48.16279312 69.07946671 -48.39621918 68.35346771 -48.63671875 67.60546875 C-48.88041702 66.86170486 -49.1241153 66.11794098 -49.37519836 65.35163879 C-49.88914656 63.77497965 -50.39914431 62.19702819 -50.90551758 60.61791992 C-51.68230293 58.2036526 -52.47797784 55.79619294 -53.27539062 53.38867188 C-53.77199647 51.8571475 -54.2674764 50.32525749 -54.76171875 48.79296875 C-55.0012175 48.07304245 -55.24071625 47.35311615 -55.48747253 46.6113739 C-57.48150369 40.29704363 -57.48150369 40.29704363 -56 37 C-51.20087898 30.14261264 -45.58635926 24.14409081 -39 19 C-37.78570312 18.04867188 -37.78570312 18.04867188 -36.546875 17.078125 C-9.638735 -3.22099816 -9.638735 -3.22099816 0 0 Z " fill="#E7E5E7" transform="translate(96,271)"/>
<path d="M0 0 C0.53439697 0.18175781 1.06879395 0.36351562 1.61938477 0.55078125 C14.11292583 4.64917765 26.01682745 6.59218655 39.125 6.5 C40.40318604 6.49355469 41.68137207 6.48710937 42.99829102 6.48046875 C53.40575479 6.27500937 63.84851353 5.49918328 73.6875 1.875 C78.8540146 0 78.8540146 0 81 0 C81.0093457 0.77601563 81.01869141 1.55203125 81.02832031 2.3515625 C81.08233437 5.90166287 81.16592303 9.45048948 81.25 13 C81.26417969 14.22074219 81.27835937 15.44148438 81.29296875 16.69921875 C81.51323186 24.84895387 82.15914739 30.80261255 87.8515625 37.0234375 C88.72941406 37.69246094 88.72941406 37.69246094 89.625 38.375 C90.21539062 38.83648437 90.80578125 39.29796875 91.4140625 39.7734375 C91.93742187 40.17820312 92.46078125 40.58296875 93 41 C93.66 41.66 94.32 42.32 95 43 C83.49774546 59.11077375 69.50880214 67.84651156 50.546875 72.6171875 C37.45892048 74.58439539 24.98365272 72.83917901 13 67.1875 C9.47283803 65.79133172 7.60144563 65.91119086 4 67 C1.63589512 68.93731528 1.63589512 68.93731528 1.6875 72.4375 C1.67229046 75.84553037 1.67229046 75.84553037 3.1640625 77.5625 C14.99998654 86.8297767 33.63616962 88.04043842 48 87 C71.32961793 83.48264485 91.35640405 72.0705314 105.47265625 53.01171875 C106.66569588 51.3534269 107.83540343 49.67838918 109 48 C110.73017508 48.45451184 112.45909877 48.91378857 114.1875 49.375 C115.15042969 49.63023437 116.11335937 49.88546875 117.10546875 50.1484375 C119.82210207 50.94766296 122.39137175 51.9031362 125 53 C120.46399373 68.79460646 104.27522238 82.88950898 90.4921875 91.06640625 C85.12814504 94.03642976 79.6694646 96.66717791 74 99 C73.38471436 99.25402588 72.76942871 99.50805176 72.13549805 99.76977539 C54.80645702 106.63551807 35.77395982 106.5318578 17.86181641 102.42358398 C13.17401391 101.35245401 8.83511189 100.4269497 4 101 C1.55901182 102.85420839 1.55901182 102.85420839 0 105 C-2.46073955 103.71275182 -4.91858171 102.42044687 -7.375 101.125 C-8.42300781 100.57779297 -8.42300781 100.57779297 -9.4921875 100.01953125 C-14.7734375 97.2265625 -14.7734375 97.2265625 -17 95 C-17.28710938 92.68432617 -17.28710938 92.68432617 -17.34375 89.79296875 C-17.37186768 88.73779053 -17.39998535 87.6826123 -17.42895508 86.59545898 C-17.46412231 84.90851929 -17.46412231 84.90851929 -17.5 83.1875 C-17.95871096 68.49321735 -20.27228258 55.18469096 -24 41 C-24.33581753 39.66729018 -24.67066255 38.33432595 -25 37 C-23.98679687 36.65388672 -23.98679687 36.65388672 -22.953125 36.30078125 C-17.67609212 34.37146143 -14.00465594 33.00775991 -11 28 C-10.71125 27.29875 -10.4225 26.5975 -10.125 25.875 C-8.44246656 23.0707776 -5.89309038 22.38627247 -3 21 C-0.9859044 17.9788566 -0.73163404 17.19339983 -0.5859375 13.76953125 C-0.54726563 12.96708984 -0.50859375 12.16464844 -0.46875 11.33789062 C-0.42234375 10.08782227 -0.42234375 10.08782227 -0.375 8.8125 C-0.33632813 7.96751953 -0.29765625 7.12253906 -0.2578125 6.25195312 C-0.16363721 4.16832476 -0.08073325 2.08419247 0 0 Z " fill="#F8D5AE" transform="translate(280,296)"/>
<path d="M0 0 C1.06906586 -0.0299556 2.13813171 -0.05991119 3.23959351 -0.09077454 C5.49677894 -0.13620363 7.75456494 -0.15745534 10.01220703 -0.15600586 C13.43906913 -0.17565585 16.83950995 -0.33867987 20.26171875 -0.50976562 C35.74158249 -0.86399932 35.74158249 -0.86399932 41.13394165 3.27603149 C45.10900569 7.51984977 47.97071853 12.27512036 50.66604614 17.40136719 C52.25022146 20.25904011 54.16171267 22.58712791 56.2734375 25.07421875 C57.89117766 27.42875146 58.79944865 28.7975798 58.9453125 31.65234375 C58.47544003 34.07131683 57.71443153 36.20933232 56.8359375 38.51171875 C56.22587054 40.55163013 55.62219489 42.59345917 55.0234375 44.63671875 C54.66894531 45.72984375 54.31445312 46.82296875 53.94921875 47.94921875 C53.1533158 50.49610819 52.45447991 52.99011219 51.81640625 55.57421875 C49.23693685 65.43924832 49.23693685 65.43924832 45.8203125 68.0546875 C43.12772943 68.93289754 40.65614835 69.25093307 37.8359375 69.51171875 C36.26392578 69.80175781 36.26392578 69.80175781 34.66015625 70.09765625 C19.71065401 72.6585276 3.95757852 72.77702043 -10.9140625 69.76171875 C-11.70586914 69.60493652 -12.49767578 69.4481543 -13.31347656 69.28662109 C-16.33033532 68.59139713 -18.68559789 67.93412893 -21.03125 65.86328125 C-22.62005613 62.56513886 -23.59512569 59.15899419 -24.5390625 55.63671875 C-26.46335277 48.71360306 -28.72211114 42.06257057 -31.34375 35.3671875 C-32.2232735 32.30560807 -32.17749345 31.42962986 -31.1640625 28.51171875 C-29.96826172 26.5480957 -29.96826172 26.5480957 -28.46875 24.5 C-27.91703125 23.74138672 -27.3653125 22.98277344 -26.796875 22.20117188 C-26.21679688 21.41677734 -25.63671875 20.63238281 -25.0390625 19.82421875 C-24.4821875 19.05916016 -23.9253125 18.29410156 -23.3515625 17.50585938 C-21.63754193 15.1619165 -19.91444188 12.82872874 -18.1640625 10.51171875 C-17.70707977 9.77147964 -17.25009705 9.03124054 -16.77926636 8.26856995 C-12.07963253 1.21613804 -8.28716978 0.08162981 0 0 Z " fill="#E6E4E6" transform="translate(118.1640625,425.48828125)"/>
<path d="M0 0 C0.55727783 0.44545166 1.11455566 0.89090332 1.6887207 1.34985352 C2.32745117 1.84485352 2.96618164 2.33985352 3.62426758 2.84985352 C4.28104492 3.38739258 4.93782227 3.92493164 5.61450195 4.47875977 C7.01311131 5.59346058 8.41286306 6.70672946 9.8137207 7.81860352 C10.50256348 8.37016113 11.19140625 8.92171875 11.90112305 9.48999023 C13.76223977 10.91509696 15.64475689 12.18326839 17.6340332 13.42016602 C25.41998635 18.43531733 25.41998635 18.43531733 26.7668457 22.70141602 C26.87652752 25.96115967 26.50204152 28.82999987 25.92700195 32.04125977 C25.66016602 33.92071289 25.66016602 33.92071289 25.38793945 35.83813477 C23.03371535 51.17449226 17.70534351 65.63333709 9.92700195 79.04125977 C9.40106445 80.07951904 8.87512695 81.11777832 8.33325195 82.1875 C5.92700195 85.04125977 5.92700195 85.04125977 2.09912109 86.00805664 C0.55575115 86.12684132 -0.99076015 86.20863892 -2.5378418 86.26000977 C-3.36373306 86.30118927 -4.18962433 86.34236877 -5.0405426 86.38479614 C-7.698759 86.48755285 -10.35040532 86.52524595 -13.01049805 86.54125977 C-13.90526855 86.55195496 -14.80003906 86.56265015 -15.72192383 86.57366943 C-32.5913447 86.59999452 -32.5913447 86.59999452 -38.2956543 81.36157227 C-41.25569154 77.65313467 -43.27604149 73.61284754 -45.08520508 69.24194336 C-46.42954924 66.24690672 -48.38912867 63.96356673 -50.51049805 61.47875977 C-52.65057922 58.35094882 -53.51604554 56.55841892 -52.82299805 52.79125977 C-52.28856501 51.19075873 -51.69841313 49.60844776 -51.07299805 48.04125977 C-50.30056953 45.87516128 -49.52989537 43.70843679 -48.76049805 41.54125977 C-48.32350586 40.35274414 -47.88651367 39.16422852 -47.4362793 37.93969727 C-45.68415841 33.05385478 -44.26552541 28.07332589 -42.86083984 23.07836914 C-42.47733662 21.72937262 -42.07477302 20.385645 -41.65307617 19.0480957 C-41.02678942 17.0467201 -41.02678942 17.0467201 -40.75854492 14.94848633 C-40.22318108 12.44737022 -39.68047574 11.05260491 -38.07299805 9.04125977 C-34.15702509 6.88528976 -30.09363469 5.47871426 -25.84106445 4.1652832 C-23.83211869 3.54408004 -21.84204032 2.87955675 -19.8503418 2.20532227 C-5.45580395 -2.52325311 -5.45580395 -2.52325311 0 0 Z " fill="#D7D4D7" transform="translate(222.072998046875,361.958740234375)"/>
<path d="M0 0 C17.34808648 5.82435756 31.78747575 16.16593808 44.7109375 28.91015625 C45.63003906 29.81636719 46.54914063 30.72257812 47.49609375 31.65625 C52.24742347 36.59851415 52.24742347 36.59851415 53.7109375 38.91015625 C53.38769531 41.109375 53.38769531 41.109375 52.7109375 43.91015625 C52.40627563 45.55878662 52.40627563 45.55878662 52.09545898 47.24072266 C47.21379549 71.35398596 47.21379549 71.35398596 40.01898193 77.31103516 C35.44684967 80.23326717 30.51520765 82.00126377 25.3359375 83.53515625 C24.24900101 83.85821747 24.24900101 83.85821747 23.1401062 84.18780518 C10.19977641 87.84159255 10.19977641 87.84159255 4.7109375 84.91015625 C2.77414598 83.52833539 0.88246501 82.08244816 -0.9765625 80.59765625 C-6.46512805 76.27450989 -12.05840516 72.11991294 -17.7265625 68.03515625 C-18.48348389 67.48819092 -19.24040527 66.94122559 -20.02026367 66.37768555 C-23.12118734 64.14643674 -26.08680454 62.01806448 -29.46484375 60.21582031 C-32.2890625 57.91015625 -32.2890625 57.91015625 -33.27172852 54.37353516 C-33.39700964 52.96392819 -33.48531648 51.55070722 -33.54296875 50.13671875 C-33.5869278 49.38033112 -33.63088684 48.62394348 -33.67617798 47.84463501 C-33.78662594 45.4064283 -33.83054809 42.97570583 -33.8515625 40.53515625 C-33.86353668 39.71269409 -33.87551086 38.89023193 -33.8878479 38.04284668 C-33.9250133 22.5218136 -33.9250133 22.5218136 -28.421875 16.69921875 C-24.48994479 13.54200952 -20.2074317 11.22450092 -15.65283203 9.08740234 C-12.34154628 7.43825755 -9.76941227 5.31742078 -6.9140625 2.97265625 C-3.01690587 -0.11841098 -3.01690587 -0.11841098 0 0 Z " fill="#E7E5E7" transform="translate(171.2890625,270.08984375)"/>
<path d="M0 0 C3.77068057 -0.08849232 7.54108765 -0.14088454 11.3125 -0.1875 C12.36501953 -0.21263672 13.41753906 -0.23777344 14.50195312 -0.26367188 C32.33988036 -0.42832966 50.15586399 7.13590943 62.9375 19.5625 C71 28.02956989 71 28.02956989 71 32 C70.31679688 31.855625 69.63359375 31.71125 68.9296875 31.5625 C61.41902757 30.17946288 54.06493119 29.72514681 46.4375 29.625 C45.47376465 29.59921875 44.5100293 29.5734375 43.51708984 29.546875 C38.10211663 29.47184837 38.10211663 29.47184837 33.375 31.83203125 C31.51415741 34.76603022 31.49226237 36.59090447 32 40 C33.57094579 42.07779119 34.44650167 42.89959952 37.03369141 43.36889648 C37.79858887 43.36962158 38.56348633 43.37034668 39.3515625 43.37109375 C40.62966797 43.39719727 40.62966797 43.39719727 41.93359375 43.42382812 C43.7044119 43.43282357 45.47525325 43.43813357 47.24609375 43.43945312 C54.57743076 43.59883002 60.5596034 45.17187737 66.3046875 49.89453125 C70.73150709 55.30141787 74 59.76345942 74 67 C73.07058594 66.7834375 72.14117187 66.566875 71.18359375 66.34375 C69.94738281 66.0653125 68.71117187 65.786875 67.4375 65.5 C66.21933594 65.2215625 65.00117188 64.943125 63.74609375 64.65625 C56.85256254 63.37159002 56.85256254 63.37159002 50.5 65.5625 C48.71345757 68.03002078 48.71345757 68.03002078 48.8125 71.5625 C49.6787976 75.27523984 49.6787976 75.27523984 53.1875 76.875 C57.31885534 78.17800647 57.31885534 78.17800647 63 79 C63 95.17 63 111.34 63 128 C41 128 41 128 35 124 C30.2236347 118.70727088 29.8326084 114.57808347 29.4765625 107.69140625 C28.93536607 104.6349772 28.15827734 103.20906033 26 101 C22.89802603 100.19053578 22.89802603 100.19053578 20 100 C20.99 99.505 20.99 99.505 22 99 C22 94.71 22 90.42 22 86 C20.68 85.67 19.36 85.34 18 85 C19.670625 84.5978125 19.670625 84.5978125 21.375 84.1875 C25.21840951 83.34190981 25.21840951 83.34190981 27 80 C27 74.11724873 23.74923744 69.32302011 20 65 C18.95585937 64.525625 17.91171875 64.05125 16.8359375 63.5625 C13.37781934 60.43780921 13.53514606 59.49783637 13.30078125 54.9765625 C13.28035814 52.52612366 13.28557975 50.07537608 13.3125 47.625 C13.27788389 45.07278971 13.2350188 42.52067694 13.18359375 39.96875 C13.14854736 38.14537109 13.14854736 38.14537109 13.11279297 36.28515625 C12.64135997 22.55441493 7.04511998 11.53423607 0 0 Z " fill="#FCAC46" transform="translate(378,24)"/>
<path d="M0 0 C3.25598628 1.26928279 5.50501616 3.03574941 8.22265625 5.23828125 C9.35728661 6.1419513 10.49413935 7.04283569 11.6328125 7.94140625 C12.24914551 8.42802734 12.86547852 8.91464844 13.50048828 9.41601562 C17.31872544 12.36651326 21.24241575 15.17207321 25.16015625 17.98828125 C25.94221436 18.55192383 26.72427246 19.11556641 27.5300293 19.69628906 C30.50746426 21.83694135 33.48353468 23.95386687 36.53515625 25.98828125 C35.91546652 31.50078596 34.58375625 36.47092492 32.84765625 41.73046875 C32.58509033 42.53944611 32.32252441 43.34842346 32.05200195 44.18191528 C31.49996857 45.87867969 30.94515556 47.57454205 30.38769531 49.26953125 C29.53159089 51.87412845 28.68506721 54.48169767 27.83984375 57.08984375 C27.30133827 58.74106718 26.76229503 60.39211535 26.22265625 62.04296875 C25.96846924 62.82517792 25.71428223 63.60738708 25.45239258 64.41329956 C23.65111931 69.87231819 23.65111931 69.87231819 22.53515625 70.98828125 C21.06161277 71.08132143 19.58365034 71.1057439 18.10717773 71.10180664 C17.16627792 71.10173111 16.22537811 71.10165558 15.25596619 71.10157776 C14.23305984 71.09641647 13.2101535 71.09125519 12.15625 71.0859375 C11.11445084 71.08452255 10.07265167 71.0831076 8.99928284 71.08164978 C5.65704531 71.07603205 2.31487368 71.06347655 -1.02734375 71.05078125 C-3.28710841 71.04576853 -5.54687412 71.04120523 -7.80664062 71.03710938 C-13.35942109 71.02690581 -18.91205827 71.00733389 -24.46484375 70.98828125 C-29.08484375 56.79828125 -33.70484375 42.60828125 -38.46484375 27.98828125 C-35.29688003 24.82031753 -32.75391531 22.30151034 -29.2421875 19.75390625 C-28.46182129 19.18357666 -27.68145508 18.61324707 -26.87744141 18.02563477 C-26.06065918 17.43580811 -25.24387695 16.84598145 -24.40234375 16.23828125 C-17.48457435 11.24451344 -17.48457435 11.24451344 -10.7265625 6.0390625 C-10.18717041 5.61270508 -9.64777832 5.18634766 -9.09204102 4.74707031 C-7.68998617 3.63053062 -6.29959035 2.499394 -4.91015625 1.3671875 C-2.46484375 -0.01171875 -2.46484375 -0.01171875 0 0 Z " fill="#5F525F" transform="translate(132.46484375,341.01171875)"/>
<path d="M0 0 C1.41949951 -0.00574036 1.41949951 -0.00574036 2.86767578 -0.01159668 C4.85775829 -0.01430461 6.84787708 -0.00702229 8.83789062 0.00976562 C11.86670029 0.03119129 14.89313823 0.00992567 17.921875 -0.015625 C19.86458852 -0.01298153 21.80730057 -0.00785614 23.75 0 C24.64605957 -0.00809692 25.54211914 -0.01619385 26.46533203 -0.02453613 C33.85615936 0.08452143 39.02721118 2.07179602 44.625 6.90625 C49.85111843 13.00338816 52.32754061 17.77446417 52.2109375 25.7734375 C51.25863953 33.59113948 46.8659771 39.17550776 41.03515625 44.15625 C35.45009647 47.71129709 29.85898442 47.86222897 23.453125 47.90234375 C22.55309753 47.91137222 21.65307007 47.9204007 20.72576904 47.92970276 C18.82632755 47.94416598 16.92683669 47.9530822 15.02734375 47.95678711 C12.14756537 47.96865699 9.26995028 48.01785786 6.390625 48.06835938 C-12.98432729 48.24026723 -12.98432729 48.24026723 -21.03173828 40.75854492 C-25.80582939 35.77010985 -27.20467905 30.92006026 -27.4375 24.09375 C-27.26788578 16.72052024 -24.65854358 11.82492186 -20.11328125 6.20703125 C-13.93293609 0.99805665 -7.89925313 -0.07137879 0 0 Z " fill="#020202" transform="translate(364.125,448.46875)"/>
<path d="M0 0 C1.73017508 0.45451184 3.45909877 0.91378857 5.1875 1.375 C6.15042969 1.63023437 7.11335937 1.88546875 8.10546875 2.1484375 C10.82210207 2.94766296 13.39137175 3.9031362 16 5 C11.46399373 20.79460646 -4.72477762 34.88950898 -18.5078125 43.06640625 C-23.87185496 46.03642976 -29.3305354 48.66717791 -35 51 C-35.61528564 51.25402588 -36.23057129 51.50805176 -36.86450195 51.76977539 C-54.19354298 58.63551807 -73.22604018 58.5318578 -91.13818359 54.42358398 C-95.82598609 53.35245401 -100.16488811 52.4269497 -105 53 C-107.44098818 54.85420839 -107.44098818 54.85420839 -109 57 C-111.46073955 55.71275182 -113.91858171 54.42044687 -116.375 53.125 C-117.07367188 52.76019531 -117.77234375 52.39539063 -118.4921875 52.01953125 C-123.7734375 49.2265625 -123.7734375 49.2265625 -126 47 C-126.28710938 44.68432617 -126.28710938 44.68432617 -126.34375 41.79296875 C-126.37210937 40.737146 -126.40046875 39.68132324 -126.4296875 38.59350586 C-126.45289063 37.46952393 -126.47609375 36.34554199 -126.5 35.1875 C-126.76293316 26.26357396 -127.35735038 17.7787504 -129 9 C-129.36770006 6.33621731 -129.68579783 3.67071847 -130 1 C-126.77513169 2.38508444 -125.00617601 3.90592505 -122.8125 6.625 C-118.66784795 11.53219626 -113.81493013 17.09253493 -108 20 C-107.81574561 21.57932331 -107.67745244 23.16412556 -107.5625 24.75 C-106.94274276 28.14413927 -106.5896908 29.55036077 -103.8125 31.66796875 C-100.91300085 33.00651595 -98.04900626 34.05081762 -95 35 C-94.05769531 35.30550781 -93.11539063 35.61101562 -92.14453125 35.92578125 C-86.46874378 37.61490841 -80.90928027 38.68359759 -75 39 C-73.98550781 39.06445312 -72.97101563 39.12890625 -71.92578125 39.1953125 C-49.86113501 39.95008945 -29.23554542 31.14770063 -13.21875 16.1953125 C-8.18295119 11.21270875 -4.03259293 5.81167804 0 0 Z " fill="#FB7C99" transform="translate(389,344)"/>
<path d="M0 0 C-0.30875179 18.2724924 -4.67181458 35.74103219 -13 52 C-13.30808594 52.60392578 -13.61617187 53.20785156 -13.93359375 53.83007812 C-17.51295053 60.71402777 -21.6213315 67.1541311 -26.25 73.375 C-26.6622583 73.94114014 -27.0745166 74.50728027 -27.49926758 75.09057617 C-28.703125 76.6484375 -28.703125 76.6484375 -31 79 C-35 79 -35 79 -36.72338867 77.33520508 C-37.2826001 76.57103271 -37.84181152 75.80686035 -38.41796875 75.01953125 C-39.03220703 74.18486328 -39.64644531 73.35019531 -40.27929688 72.49023438 C-40.90900391 71.60658203 -41.53871094 70.72292969 -42.1875 69.8125 C-42.82880859 68.94818359 -43.47011719 68.08386719 -44.13085938 67.19335938 C-49.55689304 59.71609018 -49.55689304 59.71609018 -50 55 C-49.55029297 52.86621094 -49.55029297 52.86621094 -48.7421875 50.734375 C-48.44860352 49.93483398 -48.15501953 49.13529297 -47.85253906 48.31152344 C-47.52995117 47.4662207 -47.20736328 46.62091797 -46.875 45.75 C-46.21780905 43.95963066 -45.56421956 42.16793561 -44.9140625 40.375 C-44.58825195 39.47652344 -44.26244141 38.57804687 -43.92675781 37.65234375 C-42.32472417 33.06738763 -40.99259086 28.40993085 -39.68701172 23.73339844 C-39.14605079 21.81610528 -38.57315966 19.90791504 -38 18 C-37.89985596 17.31808594 -37.79971191 16.63617188 -37.6965332 15.93359375 C-37.16040617 13.4212191 -36.6135399 12.02131094 -35 10 C-31.0656316 7.84445766 -26.98225081 6.43855607 -22.71313477 5.12402344 C-20.69366049 4.50189782 -18.69222986 3.837802 -16.68945312 3.1640625 C-11.03299441 1.31111574 -6.02608541 -0.27898014 0 0 Z " fill="#E6E4E6" transform="translate(219,361)"/>
<path d="M0 0 C1.30066406 0.433125 2.60132813 0.86625 3.94140625 1.3125 C15.70986667 4.94684575 26.85473957 6.58629372 39.125 6.5 C40.40318604 6.49355469 41.68137207 6.48710937 42.99829102 6.48046875 C53.40575479 6.27500937 63.84851353 5.49918328 73.6875 1.875 C78.8540146 0 78.8540146 0 81 0 C81.0093457 0.77601563 81.01869141 1.55203125 81.02832031 2.3515625 C81.08233437 5.90166287 81.16592303 9.45048948 81.25 13 C81.26417969 14.22074219 81.27835937 15.44148438 81.29296875 16.69921875 C81.51323186 24.84895387 82.15914739 30.80261255 87.8515625 37.0234375 C88.72941406 37.69246094 88.72941406 37.69246094 89.625 38.375 C90.21539062 38.83648437 90.80578125 39.29796875 91.4140625 39.7734375 C91.93742187 40.17820312 92.46078125 40.58296875 93 41 C93.66 41.66 94.32 42.32 95 43 C87.88610478 52.59453303 87.88610478 52.59453303 83 56 C83 55.34 83 54.68 83 54 C82.443125 53.773125 81.88625 53.54625 81.3125 53.3125 C73.14439814 48.6765503 68.9317354 40.16576095 64.9765625 32.05859375 C62.54103467 28.28978289 61.11725967 26.8645878 57 25 C52.56297724 24.45110968 48.15404362 24.44754382 43.6875 24.4375 C28.43902189 24.15315981 14.75339138 21.92178758 0 18 C0 12.06 0 6.12 0 0 Z " fill="#EEC297" transform="translate(280,296)"/>
<path d="M0 0 C1.53515625 1.2578125 1.53515625 1.2578125 3 3 C2.53873438 6.1776076 1.9026515 8.93806451 1 12 C0.71640625 12.97453125 0.4328125 13.9490625 0.140625 14.953125 C-0.51109387 17.12195993 -1.1881296 19.28330511 -1.88671875 21.4375 C-2.6826217 23.98438944 -3.38145759 26.47839344 -4.01953125 29.0625 C-6.59900065 38.92752957 -6.59900065 38.92752957 -10.015625 41.54296875 C-12.70820807 42.42117879 -15.17978915 42.73921432 -18 43 C-19.04800781 43.19335938 -20.09601563 43.38671875 -21.17578125 43.5859375 C-36.12528349 46.14680885 -51.87835898 46.26530168 -66.75 43.25 C-67.93770996 43.01482666 -67.93770996 43.01482666 -69.14941406 42.77490234 C-72.21404517 42.06866941 -74.5604422 41.38329441 -76.953125 39.296875 C-78.34575833 36.2413959 -78.68030107 33.32486883 -79 30 C-78.38181396 29.93006836 -77.76362793 29.86013672 -77.12670898 29.78808594 C-49.99521574 26.65568895 -20.14204138 20.14204138 0 0 Z " fill="#D6D3D6" transform="translate(174,452)"/>
<path d="M0 0 C4.3897793 3.95080137 5.87888644 6.93442774 6.22705078 12.87231445 C6.22673685 14.36934074 6.2155997 15.8663924 6.1953125 17.36328125 C6.1924826 18.15526413 6.18965271 18.94724701 6.18673706 19.76322937 C6.17558863 22.27980999 6.15049422 24.79602789 6.125 27.3125 C6.11496329 29.02408338 6.10583864 30.73567237 6.09765625 32.44726562 C6.07566681 36.63164906 6.04117408 40.81576314 6 45 C-0.55542678 48.00242385 -7.19724959 50.69220997 -13.9375 53.25 C-14.88173828 53.61351562 -15.82597656 53.97703125 -16.79882812 54.3515625 C-17.69923828 54.69445312 -18.59964844 55.03734375 -19.52734375 55.390625 C-20.33937256 55.70032227 -21.15140137 56.01001953 -21.98803711 56.32910156 C-24 57 -24 57 -26 57 C-26.02578125 56.03578125 -26.0515625 55.0715625 -26.078125 54.078125 C-26.13484375 52.81484375 -26.1915625 51.5515625 -26.25 50.25 C-26.29640625 48.99703125 -26.3428125 47.7440625 -26.390625 46.453125 C-27.08356914 42.52644153 -27.9112951 41.41234616 -31 39 C-31.99 38.34 -32.98 37.68 -34 37 C-28.58925001 24.19895735 -20.25458806 16.60141418 -9.5625 8.05078125 C-6.30518445 5.44393573 -3.1524423 2.73211666 0 0 Z " fill="#D7D4D7" transform="translate(474,395)"/>
<path d="M0 0 C1.8278248 1.11815016 3.45209938 2.33484801 5.09375 3.7109375 C12.33471765 8.60749349 22.54178823 8.04292191 30.80078125 6.46484375 C34.39113194 5.36058463 36.75116237 4.20254226 39.6875 1.8125 C42 0 42 0 45 -0.5625 C49.14162899 0.21405544 50.59321321 1.57215214 53 5 C53.3125 8.4375 53.3125 8.4375 52 12 C44.60194268 19.82666014 34.41275138 22.73752937 23.984375 23.23828125 C11.20972127 23.57020694 1.16878426 21.27691742 -9 13 C-10.54586876 9.90826248 -10.29359521 7.40570448 -10 4 C-7.25087265 -0.12369102 -4.8188737 -0.85038948 0 0 Z " fill="#050504" transform="translate(299,217)"/>
<path d="M0 0 C0.10853983 2.22808159 0.18583307 4.45769932 0.25 6.6875 C0.29640625 7.92886719 0.3428125 9.17023438 0.390625 10.44921875 C-0.08923376 14.81113487 -0.88448634 15.93336528 -4 19 C-7.04716134 20.6340382 -10.22826182 21.80473607 -13.47265625 22.98828125 C-14.39211533 23.33634323 -15.3115744 23.68440521 -16.25889587 24.04301453 C-18.19702677 24.77351176 -20.13791007 25.49674264 -22.08129883 26.21313477 C-25.06097808 27.31193877 -28.03186321 28.43220559 -31.00195312 29.55664062 C-32.88754772 30.26428279 -34.77360051 30.97070549 -36.66015625 31.67578125 C-37.55082291 32.01007645 -38.44148956 32.34437164 -39.35914612 32.688797 C-40.60074745 33.14508736 -40.60074745 33.14508736 -41.86743164 33.6105957 C-42.59483047 33.87975296 -43.32222931 34.14891022 -44.07167053 34.42622375 C-46 35 -46 35 -49 35 C-49 29.39 -49 23.78 -49 18 C-37.52592214 13.3161689 -25.99139117 8.81981883 -14.375 4.5 C-13.18350342 4.05479004 -11.99200684 3.60958008 -10.7644043 3.15087891 C-9.65363525 2.74015137 -8.54286621 2.32942383 -7.3984375 1.90625 C-6.40505371 1.53822266 -5.41166992 1.17019531 -4.38818359 0.79101562 C-2 0 -2 0 0 0 Z " fill="#FA7B98" transform="translate(497,450)"/>
<path d="M0 0 C3.33789335 3.01206862 5.22659183 5.96728397 7.1875 10 C7.69667969 11.03125 8.20585937 12.0625 8.73046875 13.125 C10.87092352 17.97230681 11.11946677 21.85010911 11.09765625 27.171875 C11.0962413 27.8542926 11.09482635 28.53671021 11.09336853 29.23980713 C11.08779084 31.40991684 11.07524254 33.5799217 11.0625 35.75 C11.05748211 37.22525892 11.05291971 38.70051947 11.04882812 40.17578125 C11.03782875 43.78388798 11.02057953 47.39193375 11 51 C8.5433053 52.00419637 6.08481647 53.00350501 3.625 54 C2.92632812 54.28617187 2.22765625 54.57234375 1.5078125 54.8671875 C-3.7734375 57 -3.7734375 57 -6 57 C-6.01401855 55.42702148 -6.01401855 55.42702148 -6.02832031 53.82226562 C-6.06844378 49.90062272 -6.13426226 45.97974602 -6.20751953 42.05859375 C-6.23560037 40.36728826 -6.25687854 38.67585468 -6.27099609 36.984375 C-6.29260608 34.54100575 -6.33934334 32.09915575 -6.390625 29.65625 C-6.39185364 28.91008423 -6.39308228 28.16391846 -6.39434814 27.3951416 C-6.53109175 22.40113675 -7.67157469 19.03068687 -10.24407959 14.73864746 C-11 13 -11 13 -10 10 C-7.76194363 8.10626 -5.40819811 6.43376319 -3.03125 4.71875 C-0.73789877 3.08027455 -0.73789877 3.08027455 0 0 Z " fill="#C4C0C4" transform="translate(486,383)"/>
<path d="M0 0 C0.8245166 -0.00241196 1.6490332 -0.00482391 2.49853516 -0.00730896 C4.23670272 -0.00633221 5.97490204 0.00702058 7.71289062 0.03198242 C10.36696496 0.06630235 13.01770914 0.05263225 15.671875 0.03320312 C17.36459744 0.04010194 19.05731133 0.04977465 20.75 0.0625 C21.53971191 0.05754013 22.32942383 0.05258026 23.14306641 0.04747009 C27.00529412 0.12964904 28.97787573 0.38569372 32.34765625 2.44946289 C35.17150558 5.48516893 35.447055 7.52177127 35.375 11.62890625 C33.28874661 15.05632254 32.2005689 16.35371662 28.375 17.62890625 C23.12380951 17.90580122 17.87304115 17.94229846 12.61523438 17.97900391 C10.87518955 17.99557267 9.13521305 18.02287514 7.39550781 18.06103516 C4.88050214 18.11587506 2.36708593 18.13768485 -0.1484375 18.15234375 C-0.92254974 18.17501312 -1.69666199 18.1976825 -2.49423218 18.22103882 C-6.5183619 18.20534318 -8.39638056 17.80579238 -11.61572266 15.31494141 C-13.625 12.62890625 -13.625 12.62890625 -14.25 9.12890625 C-12.77627052 0.87602118 -7.2379423 -0.12151539 0 0 Z " fill="#FAC65E" transform="translate(365.625,463.37109375)"/>
<path d="M0 0 C0 6.27 0 12.54 0 19 C-13.53 19 -27.06 19 -41 19 C-41 17.68 -41 16.36 -41 15 C-35.32247711 12.86168754 -29.64416182 10.72549829 -23.96508789 8.59130859 C-22.03159783 7.86435927 -20.09832906 7.13682109 -18.1652832 6.40869141 C-15.39331536 5.36467585 -12.62056924 4.32275221 -9.84765625 3.28125 C-8.97786636 2.95314331 -8.10807648 2.62503662 -7.21192932 2.2869873 C-6.41117477 1.98667603 -5.61042023 1.68636475 -4.78540039 1.37695312 C-4.0770253 1.11047974 -3.36865021 0.84400635 -2.6388092 0.56945801 C-1 0 -1 0 0 0 Z " fill="#F4D2AB" transform="translate(489,486)"/>
<path d="M0 0 C8.98189449 4.62273576 15.89469653 10.95306554 23 18 C23.72823975 18.71422119 23.72823975 18.71422119 24.47119141 19.44287109 C30.19423839 25.12175567 30.19423839 25.12175567 32 28 C31.53373879 31.49640793 30.49631042 34.74729821 29.37109375 38.08203125 C29.05849609 39.01337891 28.74589844 39.94472656 28.42382812 40.90429688 C27.9355957 42.34385742 27.9355957 42.34385742 27.4375 43.8125 C27.10814453 44.79154297 26.77878906 45.77058594 26.43945312 46.77929688 C25.62901285 49.18712669 24.81577946 51.59397496 24 54 C23.67 54 23.34 54 23 54 C22.65388672 52.38544922 22.65388672 52.38544922 22.30078125 50.73828125 C18.56775803 33.79339842 12.68302924 17.81338328 1.69140625 4.125 C0 2 0 2 0 0 Z " fill="#D4D1D4" transform="translate(193,281)"/>
<path d="M0 0 C1.34674805 0.00193359 1.34674805 0.00193359 2.72070312 0.00390625 C10.36236562 0.10617385 10.36236562 0.10617385 13.9375 2.375 C15.9375 5.375 15.9375 5.375 15.8125 8.875 C14.9375 12.375 14.9375 12.375 13.19921875 14.06665039 C9.08103879 16.44891792 4.58320184 15.84551209 -0.0625 15.8125 C-1.55910156 15.8424707 -1.55910156 15.8424707 -3.0859375 15.87304688 C-10.3392324 15.86818542 -10.3392324 15.86818542 -13.71484375 13.56640625 C-15.72736416 10.29387307 -15.66599726 8.13009405 -15.0625 4.375 C-10.73232533 -0.61179951 -6.1294299 -0.16792959 0 0 Z " fill="#060605" transform="translate(368.0625,135.625)"/>
<path d="M0 0 C0.88945312 -0.01546875 1.77890625 -0.0309375 2.6953125 -0.046875 C6.91296442 -0.02169499 9.39378796 0.14439648 13.08984375 2.3125 C15 4.5 15 4.5 15.5625 8 C15 11.5 15 11.5 13.65234375 13.6875 C9.39111696 16.59944291 5.03511687 16.07806383 0 16 C-0.99773437 16.01546875 -1.99546875 16.0309375 -3.0234375 16.046875 C-10.25647752 16.00809194 -10.25647752 16.00809194 -13.65234375 13.6875 C-15.66681245 10.41763777 -15.60322302 8.25338767 -15 4.5 C-10.68558527 -0.44084304 -6.10686188 -0.10620629 0 0 Z " fill="#040404" transform="translate(272,135.5)"/>
<path d="M0 0 C2.79111835 3.33106684 4.41952436 6.93182056 6 10.9375 C6.25982666 11.59339111 6.51965332 12.24928223 6.78735352 12.92504883 C13.20435635 29.63017027 13.20435635 29.63017027 11 36 C10.11957031 35.31292969 9.23914063 34.62585938 8.33203125 33.91796875 C7.15896515 33.00766946 5.98578185 32.0975212 4.8125 31.1875 C4.23435547 30.73568359 3.65621094 30.28386719 3.06054688 29.81835938 C-0.18252081 27.30818834 -3.42313088 25.02756611 -7 23 C-2.91489362 2.91489362 -2.91489362 2.91489362 0 0 Z " fill="#4A3A49" transform="translate(235,327)"/>
<path d="M0 0 C0.66 0 1.32 0 2 0 C3.00935129 2.8928729 4.00768744 5.78878515 5 8.6875 C5.28617188 9.50412109 5.57234375 10.32074219 5.8671875 11.16210938 C6.13789062 11.95810547 6.40859375 12.75410156 6.6875 13.57421875 C6.93886719 14.30213623 7.19023438 15.03005371 7.44921875 15.7800293 C8.09074188 18.36574286 8.34241416 20.34849896 8 23 C6.45532227 24.66918945 6.45532227 24.66918945 4.31640625 26.11328125 C3.55392578 26.63857422 2.79144531 27.16386719 2.00585938 27.70507812 C1.19955078 28.23552734 0.39324219 28.76597656 -0.4375 29.3125 C-1.23994141 29.86228516 -2.04238281 30.41207031 -2.86914062 30.97851562 C-8.78896545 35 -8.78896545 35 -10 35 C-10.239679 29.70651816 -9.47295027 25.29813191 -7.8125 20.3125 C-7.59053955 19.62349609 -7.3685791 18.93449219 -7.13989258 18.22460938 C-5.09531986 12.00968324 -2.66016646 5.97688464 0 0 Z " fill="#5B4F5B" transform="translate(27,327)"/>
<path d="M0 0 C7.92 0 15.84 0 24 0 C24.99 3.073125 25.98 6.14625 27 9.3125 C27.31324219 10.27712158 27.62648438 11.24174316 27.94921875 12.2355957 C28.31466797 13.38161255 28.31466797 13.38161255 28.6875 14.55078125 C28.93886719 15.33106689 29.19023438 16.11135254 29.44921875 16.9152832 C30 19 30 19 30 22 C18.74650515 17.82531643 7.18755797 9.58341062 0 0 Z " fill="#5C4F5C" transform="translate(49,462)"/>
<path d="M0 0 C7.59 0 15.18 0 23 0 C23 0.66 23 1.32 23 2 C14.16891016 10.23324044 4.02485678 18.00761202 -7 23 C-5.48116674 14.99160644 -2.81586717 7.63248205 0 0 Z " fill="#4B3A4A" transform="translate(191,462)"/>
<path d="M0 0 C1.05192787 -0.00287018 1.05192787 -0.00287018 2.12510681 -0.00579834 C3.60529947 -0.00715767 5.08550416 -0.00347882 6.56567383 0.00488281 C8.83506919 0.01560245 11.10367586 0.0049713 13.37304688 -0.0078125 C14.81119967 -0.00649117 16.24935197 -0.00392934 17.6875 0 C18.99855713 0.00225586 20.30961426 0.00451172 21.66040039 0.00683594 C24.77734375 0.265625 24.77734375 0.265625 26.77734375 2.265625 C24.69424289 3.87009431 22.61087148 5.47421018 20.52734375 7.078125 C19.94082031 7.52994141 19.35429687 7.98175781 18.75 8.44726562 C17.60618741 9.32761576 16.4584823 10.20293532 15.30664062 11.07275391 C13.63731227 12.34065001 13.63731227 12.34065001 11.66796875 14.21484375 C9.77734375 15.265625 9.77734375 15.265625 7.515625 14.8046875 C3.77158128 12.70033197 0.39054837 10.22383576 -3.03515625 7.640625 C-3.72802734 7.125 -4.42089844 6.609375 -5.13476562 6.078125 C-6.83439288 4.81219574 -8.5290306 3.53957235 -10.22265625 2.265625 C-6.47898025 -0.230159 -4.47145113 0.00768715 0 0 Z " fill="#5D505D" transform="translate(123.22265625,263.734375)"/>
<path d="M0 0 C3.0625 0.5625 3.0625 0.5625 5.9375 2.25 C9.26322653 7.43422077 9.01233283 12.58008513 8.0625 18.5625 C5.9375 21.875 5.9375 21.875 3.0625 23.5625 C0 24.125 0 24.125 -2.9375 23.5625 C-5.08984375 21.99609375 -5.08984375 21.99609375 -6.9375 19.5625 C-7.46875 16.03125 -7.46875 16.03125 -7.4375 12.0625 C-7.45296875 10.09796875 -7.45296875 10.09796875 -7.46875 8.09375 C-6.9375 4.5625 -6.9375 4.5625 -5.08984375 2.12890625 C-2.9375 0.5625 -2.9375 0.5625 0 0 Z " fill="#080706" transform="translate(367.9375,160.4375)"/>
<path d="M0 0 C1.73017508 0.45451184 3.45909877 0.91378857 5.1875 1.375 C6.63189453 1.75785156 6.63189453 1.75785156 8.10546875 2.1484375 C10.82210207 2.94766296 13.39137175 3.9031362 16 5 C14.58036591 10.67853635 11.60636039 14.53174216 8 19 C3.68068613 18.38388165 -0.25208775 17.35761422 -4.375 15.9375 C-5.43460937 15.57527344 -6.49421875 15.21304687 -7.5859375 14.83984375 C-8.38257813 14.56269531 -9.17921875 14.28554688 -10 14 C-6.84577733 9.17403931 -3.71080883 4.42442592 0 0 Z " fill="#F45B80" transform="translate(389,344)"/>
<path d="M0 0 C3.7675221 0.62792035 4.70941036 1.47176284 7 4.5 C7.53125 8.03125 7.53125 8.03125 7.5 12 C7.5103125 13.3096875 7.520625 14.619375 7.53125 15.96875 C7 19.5 7 19.5 5.15625 21.9375 C3 23.5 3 23.5 0 24 C-3.7675221 23.37207965 -4.70941036 22.52823716 -7 19.5 C-7.53125 15.96875 -7.53125 15.96875 -7.5 12 C-7.51546875 10.03546875 -7.51546875 10.03546875 -7.53125 8.03125 C-7 4.5 -7 4.5 -5.15625 2.0625 C-3 0.5 -3 0.5 0 0 Z " fill="#040403" transform="translate(272,160.5)"/>
<path d="M0 0 C0.10853983 2.22808159 0.18583307 4.45769932 0.25 6.6875 C0.29640625 7.92886719 0.3428125 9.17023438 0.390625 10.44921875 C-0.07059953 14.64174976 -0.96663408 16.12087303 -4 19 C-6.5078125 20.36328125 -6.5078125 20.36328125 -9.125 21.3125 C-10.42824219 21.80169922 -10.42824219 21.80169922 -11.7578125 22.30078125 C-14 23 -14 23 -16 23 C-16 17.72 -16 12.44 -16 7 C-16.66 6.67 -17.32 6.34 -18 6 C-15.37646482 4.99600476 -12.75132205 3.99665555 -10.125 3 C-9.37863281 2.71382813 -8.63226563 2.42765625 -7.86328125 2.1328125 C-2.2265625 0 -2.2265625 0 0 0 Z " fill="#F35B80" transform="translate(497,450)"/>
</svg>
